<svg xmlns="http://www.w3.org/2000/svg" viewBox="0 0 244.69 91.01"><defs><style>.cls-1,.cls-10,.cls-3,.cls-5,.cls-8{fill:none;}.cls-1{stroke:#601986;}.cls-1,.cls-10,.cls-3,.cls-4,.cls-5,.cls-7,.cls-8{stroke-miterlimit:10;}.cls-1,.cls-5,.cls-8{stroke-width:0.75px;}.cls-2{fill:#601986;}.cls-10,.cls-3,.cls-4,.cls-5,.cls-7{stroke:#231815;}.cls-10,.cls-3,.cls-4,.cls-7{stroke-width:0.5px;}.cls-4,.cls-7{fill:#f8b62d;}.cls-10,.cls-4{opacity:0.8;}.cls-6{fill:#231815;}.cls-7{opacity:0.9;}.cls-8{stroke:#9fa0a0;}.cls-9{fill:#9fa0a0;}</style></defs><title>constraint</title><g id="图层_2" data-name="图层 2"><g id="图层_1-2" data-name="图层 1"><path class="cls-1" d="M179.12,17.21A6.37,6.37,0,0,1,179,29.94a6.29,6.29,0,0,1-3.72-1.21"/><polygon class="cls-2" points="180.65 18.55 174.76 18.86 179.7 15.65 180.65 18.55"/><line class="cls-3" x1="244.69" y1="49.61" x2="118.17" y2="49.61"/><line class="cls-3" x1="126.23" y1="49.61" x2="121.08" y2="54.77"/><line class="cls-3" x1="134.74" y1="49.61" x2="129.58" y2="54.77"/><line class="cls-3" x1="143.24" y1="49.61" x2="138.09" y2="54.77"/><line class="cls-3" x1="151.75" y1="49.61" x2="146.59" y2="54.77"/><line class="cls-3" x1="160.25" y1="49.61" x2="155.09" y2="54.77"/><line class="cls-3" x1="168.75" y1="49.61" x2="163.6" y2="54.77"/><line class="cls-3" x1="177.26" y1="49.61" x2="172.1" y2="54.77"/><line class="cls-3" x1="185.76" y1="49.61" x2="180.61" y2="54.77"/><line class="cls-3" x1="194.27" y1="49.61" x2="189.11" y2="54.77"/><line class="cls-3" x1="202.77" y1="49.61" x2="197.61" y2="54.77"/><line class="cls-3" x1="211.27" y1="49.61" x2="206.12" y2="54.77"/><line class="cls-3" x1="219.78" y1="49.61" x2="214.62" y2="54.77"/><line class="cls-3" x1="228.28" y1="49.61" x2="223.13" y2="54.77"/><line class="cls-3" x1="236.79" y1="49.61" x2="231.63" y2="54.77"/><rect class="cls-4" x="137.67" y="32.22" width="24.89" height="17.39"/><line class="cls-5" x1="150.12" y1="40.92" x2="173.8" y2="40.92"/><polygon class="cls-6" points="172.76 42.44 178.45 40.92 172.76 39.39 172.76 42.44"/><line class="cls-5" x1="150.12" y1="40.92" x2="150.12" y2="26.7"/><polygon class="cls-6" points="151.64 27.74 150.12 22.05 148.59 27.74 151.64 27.74"/><path class="cls-6" d="M184.72,41.68a1.63,1.63,0,0,0,.07.26,11.12,11.12,0,0,0-1.82.88,1.56,1.56,0,0,0-.16-.28.46.46,0,0,0,.24-.42V40.18l-.82.18-.06-.28.88-.19V38.28h.3v1.54l1.31-.3.05.28-1.36.31v2.15Zm3.2-2.84c-.1,3.31-.18,4.38-.44,4.69a.54.54,0,0,1-.44.23c-.2,0-.56,0-.9,0a.62.62,0,0,0-.09-.32,8.91,8.91,0,0,0,.89,0c.13,0,.2,0,.26-.11.21-.24.32-1.34.41-4.41h-1.52c0,2-.18,3.91-1.89,4.87a.87.87,0,0,0-.24-.23c1.68-.89,1.79-2.78,1.83-4.64h-1.11v-.3h3.24Z"/><path class="cls-6" d="M194.12,43.35c0,.25-.06.38-.26.43a6.59,6.59,0,0,1-1.18,0,1.66,1.66,0,0,0-.12-.33c.51,0,1,0,1.1,0s.16,0,.16-.16v-3.9h-4.46v4.38h-.31V39.15h1.76a9.11,9.11,0,0,0,.45-1.15l.37.08c-.16.35-.33.75-.49,1.07h3Zm-3.51-.84V43h-.29V40.44h2.5v2.07Zm0-1.79v1.5h1.92v-1.5Z"/><path class="cls-6" d="M129.47,17a6.57,6.57,0,0,0-1.17-.7l.17-.22a5.54,5.54,0,0,1,1.17.66Zm-1,2.77a16.62,16.62,0,0,0,1.22-2.08l.22.2c-.33.67-.8,1.51-1.17,2.1Zm.29-5.43a5.85,5.85,0,0,1,1.23.67l-.18.27a5.38,5.38,0,0,0-1.22-.72Zm3.31,3a11.23,11.23,0,0,1-1.29,2.07l2.36-.28a9.31,9.31,0,0,0-.64-.92l.24-.12A8.13,8.13,0,0,1,133.92,20l-.26.14a4.75,4.75,0,0,0-.34-.68,18.05,18.05,0,0,0-2.91.42,1.39,1.39,0,0,0-.1-.31c.11,0,.24-.19.41-.42a11.25,11.25,0,0,0,1-1.73h-1.58V17.1h1.72V15.79h-1.43V15.5h1.43V14.31h.31V15.5h1.49v.29H132.2V17.1H134v.29Z"/><path class="cls-6" d="M140.16,19.63c0,.25-.06.38-.26.43a6.48,6.48,0,0,1-1.19.06,1.22,1.22,0,0,0-.11-.34c.51,0,1,0,1.09,0s.16,0,.16-.16v-3.9h-4.46v4.39h-.3V15.43h1.75a9.19,9.19,0,0,0,.46-1.15l.36.08c-.15.35-.32.75-.48,1.07h3Zm-3.52-.84v.46h-.28V16.72h2.49v2.07Zm0-1.79v1.5h1.93V17Z"/><path class="cls-6" d="M142.41,17.21a4.27,4.27,0,0,1,1.28-3l.25.16a4,4,0,0,0,0,5.75l-.25.15A4.25,4.25,0,0,1,142.41,17.21Z"/><path class="cls-6" d="M146.21,18.37c-.13-.21-.43-.66-.65-1v2.73h-.29V17.44a7,7,0,0,1-.82.93,1.6,1.6,0,0,0-.18-.25,6.86,6.86,0,0,0,1.66-2.35h-1.64v-.29h1.78l.06,0,.17.12a6.69,6.69,0,0,1-.74,1.43,3.13,3.13,0,0,1,.23.31,5.88,5.88,0,0,0,.55-.63l.22.17a7.48,7.48,0,0,1-.63.63c.19.27.38.54.46.64Zm-.74-3a5.47,5.47,0,0,0-.49-.91l.24-.11a5.83,5.83,0,0,1,.5.88Zm4.28,1.54a4.64,4.64,0,0,1-1.1,2.05,3.84,3.84,0,0,0,1.51.87.86.86,0,0,0-.2.26,4.33,4.33,0,0,1-1.52-.92,4.8,4.8,0,0,1-1.53.94.83.83,0,0,0-.18-.25,4.49,4.49,0,0,0,1.51-.91,4.91,4.91,0,0,1-1-1.82h-.15a5,5,0,0,1-.79,2.93,1.07,1.07,0,0,0-.23-.2,4.74,4.74,0,0,0,.73-2.9V15.3h1.39v-1h.29v1h1.4l.22.06c-.14.43-.29.93-.42,1.24l-.27-.08a7.12,7.12,0,0,0,.3-.92h-1.23v1.25h1.11Zm-2.69-1.32v1.25h1.1V15.59Zm.44,1.54a4.57,4.57,0,0,0,.94,1.62,4.2,4.2,0,0,0,.94-1.62Z"/><path class="cls-6" d="M153.06,17.72a2.18,2.18,0,0,0,0,.27,13.58,13.58,0,0,0-2.2.42,2,2,0,0,0-.1-.29,1.5,1.5,0,0,0,.5-.43,8.12,8.12,0,0,0,.8-1,6.87,6.87,0,0,0-1.24.2,1.76,1.76,0,0,0-.1-.3c.1,0,.22-.18.38-.41a10.92,10.92,0,0,0,1-1.84l.29.13a12.59,12.59,0,0,1-1.21,2l1.08-.11a7.82,7.82,0,0,0,.45-.72l.28.16A14.79,14.79,0,0,1,151.36,18Zm-2.32,1.67,2.38-.47,0,.27-2.34.5Zm5.54-3.7c-.09,2.94-.17,3.9-.41,4.19a.53.53,0,0,1-.44.2,7.39,7.39,0,0,1-.91,0,.6.6,0,0,0-.1-.3c.41,0,.78,0,.92,0a.29.29,0,0,0,.25-.09c.21-.23.31-1.21.39-3.91h-2a5.27,5.27,0,0,1-.56,1,1.75,1.75,0,0,0-.27-.16,6.21,6.21,0,0,0,1-2.31l.31.06a8.53,8.53,0,0,1-.4,1.14h2.23ZM155,18.3a7.18,7.18,0,0,0-1.26-1.42l.22-.18a7.36,7.36,0,0,1,1.28,1.41Z"/><path class="cls-6" d="M160.37,17.86A5.93,5.93,0,0,0,163,19.61a1.44,1.44,0,0,0-.22.27,6.66,6.66,0,0,1-2.58-1.81v2.05h-.31v-2a6.8,6.8,0,0,1-2.53,1.77,1,1,0,0,0-.21-.26,6,6,0,0,0,2.56-1.75h-1.89V16.15h2.07v-.81h-2.54v-.29h2.54v-.73h.31v.73h2.56v.29h-2.56v.81h2.09v1.71Zm-2.26-.28h1.77V16.44h-1.77Zm2.08-1.14v1.14H162V16.44Z"/><path class="cls-6" d="M164.85,17.21a4.25,4.25,0,0,1-1.28,3l-.25-.15a4,4,0,0,0,0-5.75l.25-.16A4.27,4.27,0,0,1,164.85,17.21Z"/><path class="cls-6" d="M192.67,21.47v.17c0,2.17-.1,2.86-.26,3.08a.43.43,0,0,1-.34.16,5,5,0,0,1-.66,0,.79.79,0,0,0-.08-.29c.27,0,.53,0,.63,0a.17.17,0,0,0,.19-.07,9.88,9.88,0,0,0,.22-2.77h-.89a4.89,4.89,0,0,1-.88,3.2,1.1,1.1,0,0,0-.23-.2c.77-.81.82-2.25.84-4.23h-.73v-.29H193v.29H191.5c0,.33,0,.64,0,.94Zm-.87-1.26a7.57,7.57,0,0,0-.5-.9l.27-.1a6.46,6.46,0,0,1,.51.87Zm2.92,4.24a2.13,2.13,0,0,0,.63.08h1a.91.91,0,0,0-.11.3h-.87a1.63,1.63,0,0,1-1.78-1.21,2.56,2.56,0,0,1-.64,1.32.67.67,0,0,0-.22-.19,4,4,0,0,0,.75-2.66h.29c0,.34-.05.68-.09,1a1.84,1.84,0,0,0,.78,1.26V21.4h-1.16v-.28h2.67l.06,0,.2.07a9.71,9.71,0,0,1-.53,1.07l-.25-.1c.11-.2.25-.47.37-.74h-1.07v1.26H196v.28h-1.31Zm-1.09-4.13a4.53,4.53,0,0,1-.58.92,1.64,1.64,0,0,0-.25-.19,4.46,4.46,0,0,0,.93-1.9l.3.06a5.5,5.5,0,0,1-.27.81h2.52v.3Z"/><path class="cls-6" d="M199.45,23.27l-.94.2v1.46h-.3v-1.4l-1.25.26-.08-.31,1.33-.24v-1h-.62a.94.94,0,0,0-.46.08A2.52,2.52,0,0,0,197,22c.09,0,.19-.24.31-.52a11.93,11.93,0,0,0,.41-1.23h-.84v-.3h.92c.06-.25.13-.52.17-.78l.32.07c-.06.24-.12.48-.19.71h1.09v.3h-1.17a11.48,11.48,0,0,1-.62,1.67h.78v-1h.3v1h.76v.29h-.76v1l.92-.18Zm1.21-1.83-.27.89h1.7l0,0,.23.12c-.31.45-.77,1.08-1.17,1.61a8,8,0,0,1,.8.67l-.21.25a8.93,8.93,0,0,0-1.7-1.35l.2-.2c.23.14.46.3.68.46.31-.41.66-.88.9-1.24H200c.12-.32.26-.73.39-1.18h-1v-.29h1.13c.09-.3.18-.61.26-.91h-1.12v-.3h1.21c.08-.28.14-.54.21-.78l.31,0c-.07.24-.13.49-.2.75h1.34v.3H201c-.09.3-.17.61-.26.91h1.93v.29Z"/><path class="cls-6" d="M204.58,22.05a4.24,4.24,0,0,1,1.29-3l.25.15a4,4,0,0,0,0,5.76l-.25.15A4.22,4.22,0,0,1,204.58,22.05Z"/><path class="cls-6" d="M208.38,23.2c-.13-.2-.43-.66-.65-1V25h-.29V22.28a7,7,0,0,1-.82.93,1.21,1.21,0,0,0-.17-.25,7.25,7.25,0,0,0,1.66-2.35h-1.65v-.29h1.79l.05,0,.17.12a6.94,6.94,0,0,1-.74,1.43c.07.08.15.19.23.3a6.15,6.15,0,0,0,.56-.62l.21.17a7.48,7.48,0,0,1-.63.63c.19.27.38.54.46.64Zm-.74-3a5.47,5.47,0,0,0-.49-.91l.24-.11a5.38,5.38,0,0,1,.5.88Zm4.28,1.54a4.36,4.36,0,0,1-1.1,2,3.74,3.74,0,0,0,1.51.88.86.86,0,0,0-.2.26,4.42,4.42,0,0,1-1.52-.92,4.75,4.75,0,0,1-1.52.94,1.44,1.44,0,0,0-.18-.25,4.45,4.45,0,0,0,1.5-.91,5,5,0,0,1-1-1.82h-.16a5,5,0,0,1-.79,2.93,1.07,1.07,0,0,0-.23-.2,4.74,4.74,0,0,0,.73-2.9V20.14h1.39v-1h.29v1H212l.21.06c-.14.43-.29.93-.42,1.23l-.27-.07a7.67,7.67,0,0,0,.3-.92h-1.23v1.25h1.11Zm-2.69-1.32v1.25h1.1V20.43Zm.44,1.54a4.66,4.66,0,0,0,.94,1.62,4.2,4.2,0,0,0,.94-1.62Z"/><path class="cls-6" d="M215.23,22.56a2.18,2.18,0,0,0,0,.27,13.58,13.58,0,0,0-2.2.42c0-.07-.06-.21-.09-.29a1.6,1.6,0,0,0,.49-.43,9,9,0,0,0,.81-1,7.9,7.9,0,0,0-1.25.19,2.11,2.11,0,0,0-.1-.3c.1,0,.23-.18.38-.4a10.92,10.92,0,0,0,1-1.84l.3.13a14.21,14.21,0,0,1-1.21,2.05l1.07-.12c.16-.23.32-.47.46-.71l.27.16a14,14,0,0,1-1.64,2.12Zm-2.32,1.66c.59-.1,1.5-.28,2.38-.46l0,.27c-.84.17-1.71.37-2.34.49Zm5.55-3.69c-.1,2.94-.18,3.9-.42,4.19a.54.54,0,0,1-.44.2c-.21,0-.56,0-.91,0a.57.57,0,0,0-.1-.3c.41,0,.78,0,.92,0s.19,0,.25-.09c.21-.22.31-1.2.4-3.9h-2a5.61,5.61,0,0,1-.56,1,1.75,1.75,0,0,0-.27-.16,6.38,6.38,0,0,0,1-2.31l.3.06a10.18,10.18,0,0,1-.39,1.14h2.23Zm-1.33,2.61a6.66,6.66,0,0,0-1.26-1.42l.22-.18A7.07,7.07,0,0,1,217.37,23Z"/><path class="cls-6" d="M222.54,22.7a6,6,0,0,0,2.62,1.75,1.52,1.52,0,0,0-.22.27,6.58,6.58,0,0,1-2.58-1.82V25h-.31v-2a6.92,6.92,0,0,1-2.53,1.77,1,1,0,0,0-.21-.26,6,6,0,0,0,2.56-1.75H220V21h2.07v-.82h-2.53v-.28h2.53v-.73h.31v.73h2.56v.28h-2.56V21h2.09V22.7Zm-2.26-.28h1.77V21.28h-1.77Zm2.08-1.14v1.14h1.78V21.28Z"/><path class="cls-6" d="M227,22.05a4.21,4.21,0,0,1-1.28,3l-.25-.15a4,4,0,0,0,0-5.76l.25-.15A4.23,4.23,0,0,1,227,22.05Z"/><path class="cls-7" d="M2.62,55.3A3.22,3.22,0,0,1,1.1,50C5.74,45,15.15,37,28,37.59c14.74.67,24.38,11.32,27.56,27.56a3.21,3.21,0,0,1-4,3.68Z"/><path class="cls-7" d="M63.68,22.49a4.88,4.88,0,0,1,2.47,8.41A33.68,33.68,0,0,1,51.08,39c-3.07.72-9.67,2.27-16.51-.73C27.12,35,23.36,28.14,21.5,22.71a4.87,4.87,0,0,1,5.41-6.37Z"/><line class="cls-1" x1="18.81" y1="34.01" x2="82.48" y2="52.4"/><polygon class="cls-2" points="81.06 53.58 86.95 53.7 81.91 50.65 81.06 53.58"/><line class="cls-8" x1="33.73" y1="45.91" x2="45.17" y2="6.29"/><polygon class="cls-9" points="46.35 7.71 46.47 1.82 43.42 6.86 46.35 7.71"/><path class="cls-1" d="M77.83,15a10.31,10.31,0,1,1-3.18,18.27"/><polygon class="cls-2" points="79.52 15.96 73.77 17.25 78.1 13.26 79.52 15.96"/><path class="cls-6" d="M77.12,63a2,2,0,0,0,.07.26,9.18,9.18,0,0,0-1.82.88,1.56,1.56,0,0,0-.16-.28.47.47,0,0,0,.24-.42V61.52l-.82.19-.06-.29.88-.19V59.62h.3v1.54l1.31-.29.06.27-1.37.31v2.16Zm3.21-2.85c-.11,3.31-.19,4.38-.45,4.7a.56.56,0,0,1-.44.22c-.2,0-.56,0-.9,0a.59.59,0,0,0-.09-.31c.4,0,.76,0,.9,0s.19,0,.25-.1c.21-.24.32-1.35.41-4.42H78.49c0,2-.18,3.91-1.89,4.87a1.05,1.05,0,0,0-.24-.23c1.68-.89,1.79-2.78,1.83-4.64H77.08V60h3.25Z"/><path class="cls-6" d="M86.53,64.69c0,.26-.07.38-.27.43a6.28,6.28,0,0,1-1.18.06,1.46,1.46,0,0,0-.12-.33c.51,0,1,0,1.1,0s.16,0,.16-.16V60.8H81.76v4.38h-.31V60.5h1.76a9.74,9.74,0,0,0,.45-1.15l.37.08c-.16.34-.33.75-.49,1.07h3ZM83,63.85v.46h-.29V61.78h2.5v2.07Zm0-1.78v1.49h1.92V62.07Z"/><path class="cls-6" d="M55.57,2.86a6.8,6.8,0,0,0-1.17-.71l.17-.21a5.3,5.3,0,0,1,1.17.66Zm-1,2.77a18,18,0,0,0,1.21-2.08l.23.2c-.34.67-.81,1.51-1.18,2.09ZM54.89.2a5.85,5.85,0,0,1,1.23.67L56,1.14A5.25,5.25,0,0,0,54.72.42Zm3.32,3a11.36,11.36,0,0,1-1.3,2.06L59.28,5a9.37,9.37,0,0,0-.65-.92L58.87,4A8.59,8.59,0,0,1,60,5.79l-.27.14a3.9,3.9,0,0,0-.34-.68,17.33,17.33,0,0,0-2.9.42,1.92,1.92,0,0,0-.11-.31c.11,0,.24-.19.41-.43a10.53,10.53,0,0,0,1-1.72H56.27V2.92H58V1.61H56.57v-.3H58V.13h.3V1.31h1.5v.3H58.3V2.92h1.77v.29Z"/><path class="cls-6" d="M66.26,5.45c0,.25-.06.37-.26.43a6.59,6.59,0,0,1-1.18,0,1.66,1.66,0,0,0-.12-.33c.51,0,1,0,1.1,0s.16,0,.16-.16V1.55H61.5V5.93h-.31V1.25H63A9.11,9.11,0,0,0,63.4.1l.37.08c-.16.35-.33.75-.49,1.07h3Zm-3.51-.84v.46h-.29V2.54H65V4.61Zm0-1.79v1.5h1.92V2.82Z"/><path class="cls-6" d="M68.52,3A4.23,4.23,0,0,1,69.8,0l.25.15A4.05,4.05,0,0,0,68.83,3a4.05,4.05,0,0,0,1.22,2.88l-.25.15A4.21,4.21,0,0,1,68.52,3Z"/><path class="cls-6" d="M72.31,4.18c-.13-.2-.43-.66-.65-1V5.93h-.29V3.26a7,7,0,0,1-.82.93,1.21,1.21,0,0,0-.17-.25A7.1,7.1,0,0,0,72,1.59H70.39V1.3h1.79l.06,0,.16.12a6.94,6.94,0,0,1-.74,1.43l.24.3a7.44,7.44,0,0,0,.55-.62l.21.17a7.48,7.48,0,0,1-.63.63l.46.64Zm-.74-3a5.47,5.47,0,0,0-.49-.91l.24-.11a5.38,5.38,0,0,1,.5.88Zm4.28,1.54a4.41,4.41,0,0,1-1.1,2,3.74,3.74,0,0,0,1.51.87.9.9,0,0,0-.2.27A4.3,4.3,0,0,1,74.54,5,4.61,4.61,0,0,1,73,5.93a1.14,1.14,0,0,0-.18-.25,4.45,4.45,0,0,0,1.5-.91,5,5,0,0,1-1-1.82h-.16a5,5,0,0,1-.78,2.93,1.41,1.41,0,0,0-.24-.2,4.75,4.75,0,0,0,.73-2.91V1.12h1.4v-1h.28v1H76l.21.06c-.14.43-.29.93-.42,1.23l-.27-.07a7.67,7.67,0,0,0,.3-.92H74.55V2.66h1.11ZM73.16,1.41V2.66h1.11V1.41ZM73.6,3a4.66,4.66,0,0,0,.94,1.62A4.2,4.2,0,0,0,75.48,3Z"/><path class="cls-6" d="M79.16,3.54a2.18,2.18,0,0,0,0,.27,12.13,12.13,0,0,0-2.2.42c0-.07-.06-.21-.09-.3a1.28,1.28,0,0,0,.49-.43,7.73,7.73,0,0,0,.81-1,7.9,7.9,0,0,0-1.25.19,2.11,2.11,0,0,0-.1-.3c.1,0,.23-.18.38-.4a10.92,10.92,0,0,0,1-1.84l.3.13a12.59,12.59,0,0,1-1.21,2.05l1.07-.12c.16-.23.32-.47.46-.71l.27.16a14,14,0,0,1-1.64,2.12ZM76.85,5.2c.58-.1,1.49-.29,2.37-.46l0,.27c-.84.17-1.71.37-2.34.49Zm5.54-3.69c-.1,2.94-.18,3.9-.42,4.19a.53.53,0,0,1-.44.2c-.21,0-.56,0-.9,0a.77.77,0,0,0-.11-.31c.41,0,.78,0,.93,0a.25.25,0,0,0,.25-.09c.2-.22.3-1.2.39-3.91H80a5.37,5.37,0,0,1-.56,1l-.26-.17a6.41,6.41,0,0,0,1-2.3l.3.06a10.18,10.18,0,0,1-.39,1.14h2.23ZM81.06,4.12A6.66,6.66,0,0,0,79.8,2.7L80,2.52A7.07,7.07,0,0,1,81.3,3.93Z"/><path class="cls-6" d="M86.47,3.68a6,6,0,0,0,2.62,1.75,1.15,1.15,0,0,0-.21.27,6.54,6.54,0,0,1-2.59-1.82V5.93H86v-2a6.83,6.83,0,0,1-2.53,1.78,1,1,0,0,0-.21-.26,6.06,6.06,0,0,0,2.57-1.75h-1.9V2H86V1.15H83.45V.86H86V.13h.31V.86h2.57v.29H86.29V2h2.09V3.68ZM84.21,3.4H86V2.26H84.21Zm2.08-1.14V3.4h1.78V2.26Z"/><path class="cls-6" d="M91,3a4.21,4.21,0,0,1-1.28,3l-.25-.15A4.05,4.05,0,0,0,90.64,3,4.05,4.05,0,0,0,89.42.15L89.67,0A4.23,4.23,0,0,1,91,3Z"/><path class="cls-6" d="M77,24.32v.16c-.06,2.18-.11,2.86-.27,3.08a.45.45,0,0,1-.34.17c-.14,0-.4,0-.65,0a1,1,0,0,0-.08-.29c.27,0,.53,0,.62,0s.15,0,.2-.07a9.84,9.84,0,0,0,.22-2.76h-.9a4.88,4.88,0,0,1-.87,3.19,1.1,1.1,0,0,0-.23-.2c.76-.81.82-2.24.84-4.23h-.74v-.29h2.52v.29H75.78c0,.33,0,.65,0,.95Zm-.87-1.27a8.45,8.45,0,0,0-.5-.9l.26-.1a5.73,5.73,0,0,1,.52.88ZM79,27.3a2.53,2.53,0,0,0,.63.07h1a.79.79,0,0,0-.11.29h-.87a1.63,1.63,0,0,1-1.78-1.21,2.64,2.64,0,0,1-.64,1.33.7.7,0,0,0-.22-.2,4,4,0,0,0,.75-2.66H78c0,.34,0,.68-.09,1a1.84,1.84,0,0,0,.78,1.26V24.24H77.55V24h2.67l.06,0,.2.08a9.42,9.42,0,0,1-.54,1.06L79.7,25c.11-.19.25-.47.37-.74H79V25.5h1.3v.28H79Zm-1.09-4.14a4.62,4.62,0,0,1-.58.93,1.69,1.69,0,0,0-.25-.2A4.64,4.64,0,0,0,78,22l.3.07c-.08.27-.17.55-.27.8h2.51v.3Z"/><path class="cls-6" d="M83.73,26.11l-.94.2v1.46h-.3v-1.4c-.47.11-.9.19-1.25.26l-.08-.31,1.33-.24V25h-.63a.92.92,0,0,0-.45.08,1.9,1.9,0,0,0-.1-.28c.09,0,.19-.25.3-.52A10.85,10.85,0,0,0,82,23.08h-.83v-.29h.92c.06-.26.13-.53.17-.79l.31.07q-.07.36-.18.72H83.5v.29H82.33a12.77,12.77,0,0,1-.62,1.67h.78v-1h.3v1h.76V25h-.76v1l.92-.18Zm1.21-1.82c-.1.32-.19.62-.28.88h1.71l0,0,.22.12c-.3.45-.76,1.08-1.16,1.61a6.8,6.8,0,0,1,.8.68l-.21.24a9.7,9.7,0,0,0-1.7-1.35l.2-.19a7.26,7.26,0,0,1,.68.45c.31-.41.66-.88.89-1.24H84.23c.11-.32.25-.73.39-1.17H83.57V24h1.14c.09-.3.18-.61.26-.91H83.84v-.29h1.21c.09-.29.15-.55.22-.79l.3,0-.19.75h1.33v.29H85.29c-.09.3-.17.61-.26.91H87v.3Z"/><line class="cls-10" x1="2.05" y1="49.04" x2="4.49" y2="52.65"/><line class="cls-10" x1="5" y1="46.21" x2="7.44" y2="49.82"/><line class="cls-10" x1="7.96" y1="44" x2="10.39" y2="47.61"/><line class="cls-1" x1="5.31" y1="46.05" x2="5.31" y2="46.05"/><line class="cls-1" x1="6.22" y1="45.3" x2="6.22" y2="45.3"/><path class="cls-6" d="M14.63,83v.44H5.86V83h4.28c-.09-.32-.21-.73-.33-1l.42-.09c.14.36.28.81.38,1.13Zm-.38,7.41c0,.27-.06.38-.26.46a4.4,4.4,0,0,1-1.21.08,1.36,1.36,0,0,0-.17-.39c.46,0,.88,0,1,0s.16,0,.16-.14V87.11h-7V91H6.27V86.68h8Zm-1.16-6.29V86H7.49V84.08Zm-.5.4H8v1.14h4.61Zm-.3,5.31H8.57v.56H8.1V87.84h4.19ZM8.57,88.23v1.16h3.28V88.23Z"/><path class="cls-6" d="M16,82.33h5.5v.44H16Zm.3,4.38h5v4.1h-.46v-.5h-4.1V91h-.46Zm4.56-3.07v2.2H16.68v-2.2Zm-4.1,3.48v1.14h1.82V87.12Zm1.82,2.77V88.67H16.75v1.22Zm1.81-5.83H17.13v1.36h3.25Zm.47,3.06H19v1.14h1.83Zm0,2.77V88.67H19v1.22Zm1.9-1.33H22.3V83.05h.45ZM24.54,82v8.25c0,.38-.12.54-.37.63a5.9,5.9,0,0,1-1.59.09,2.3,2.3,0,0,0-.17-.48c.67,0,1.24,0,1.4,0s.26-.06.26-.23V82Z"/><path class="cls-6" d="M27.69,87.2v3.13c0,.32-.1.45-.31.54a3.26,3.26,0,0,1-1.19.1,2.3,2.3,0,0,0-.16-.46h1c.13,0,.19,0,.19-.19v-3c-.47.17-.92.34-1.31.46l-.16-.48,1.47-.48V84.4H25.89V84h1.34V81.86h.46V84h1.18v.45H27.69v2.31l1.09-.37.07.46Zm7.44,3.18a1,1,0,0,0-.17.43H33.2c-1.56,0-2.65-.29-3.28-1.82a4.58,4.58,0,0,1-1.31,2,2.37,2.37,0,0,0-.37-.32,4.75,4.75,0,0,0,1.58-3.44l.46,0a8.19,8.19,0,0,1-.2,1.11,2.42,2.42,0,0,0,1.57,1.77v-3.5H29.12v-.44h5.67v.44H32.1V88h2.22v.42H32.1v1.83a5.55,5.55,0,0,0,1.11.09Zm-.92-5H29.56V82.19h4.65Zm-.47-2.76H30v1h3.73Zm0,1.36H30v1h3.73Z"/><path class="cls-6" d="M38.86,82a16.16,16.16,0,0,1-1.08,2.21V91h-.49V85a10.88,10.88,0,0,1-1.21,1.49,2,2,0,0,0-.3-.44,11.89,11.89,0,0,0,2.62-4.15Zm6.29,5.33v.48H38.6v-.48h1.68V84.59H38.87v-.48h1.41V82h.47v2.14H43V82h.47v2.14H45v.48H43.49v2.75Zm-4.23,1.28A9.76,9.76,0,0,1,39,91a2.28,2.28,0,0,0-.41-.33,7.13,7.13,0,0,0,1.83-2.17Zm-.17-1.28H43V84.59H40.75Zm2.41,1.18A12.71,12.71,0,0,1,45,90.73l-.4.28a12.14,12.14,0,0,0-1.82-2.27Z"/><path class="cls-6" d="M48.79,89.73h1.66v-6H49.17v-.4a4.17,4.17,0,0,0,1.4-.46h.48v6.84h1.53v.52H48.79Z"/><path class="cls-6" d="M61.09,82l-.27.42A12.12,12.12,0,0,0,65.19,86a1.39,1.39,0,0,0-.35.41,12.87,12.87,0,0,1-4.29-3.58,12.28,12.28,0,0,1-4.24,3.57A1.74,1.74,0,0,0,56,86a11.4,11.4,0,0,0,4.71-4.15Zm-.78,2.6h.48V91h-.48Z"/><path class="cls-6" d="M69.74,87.21a2.62,2.62,0,0,0,0,.42,20.77,20.77,0,0,0-3.46.67c0-.11-.1-.33-.15-.46a2.27,2.27,0,0,0,.78-.68A14.81,14.81,0,0,0,68.2,85.6a10.85,10.85,0,0,0-2,.3,3.29,3.29,0,0,0-.15-.48c.16,0,.35-.28.59-.63a17.05,17.05,0,0,0,1.6-2.9l.46.2a19.65,19.65,0,0,1-1.91,3.23l1.7-.18c.25-.36.51-.75.72-1.13l.43.25a22.27,22.27,0,0,1-2.59,3.35ZM66.1,89.84c.93-.17,2.35-.46,3.74-.74l0,.43-3.68.78ZM74.83,84c-.15,4.63-.27,6.15-.66,6.6a.84.84,0,0,1-.69.33,10.82,10.82,0,0,1-1.43,0,1.1,1.1,0,0,0-.16-.47c.65.06,1.23.06,1.46.06a.4.4,0,0,0,.39-.14c.32-.35.48-1.9.62-6.16H71.13a8.76,8.76,0,0,1-.88,1.56,2.52,2.52,0,0,0-.42-.27,10,10,0,0,0,1.63-3.63l.47.1a15.07,15.07,0,0,1-.61,1.79h3.51Zm-2.09,4.12a10.21,10.21,0,0,0-2-2.24l.35-.28a11.14,11.14,0,0,1,2,2.22Z"/><path class="cls-6" d="M81.27,87.43a9.34,9.34,0,0,0,4.12,2.76,2.31,2.31,0,0,0-.34.42A10.32,10.32,0,0,1,81,87.76V91h-.49V87.81a10.71,10.71,0,0,1-4,2.79,1.86,1.86,0,0,0-.33-.41,9.65,9.65,0,0,0,4-2.76h-3V84.74h3.26V83.45h-4V83h4V81.85H81V83h4v.45H81v1.29h3.29v2.69ZM77.7,87h2.79v-1.8H77.7ZM81,85.19V87h2.81v-1.8Z"/><path class="cls-6" d="M144.51,82a15.86,15.86,0,0,1-1,2.2V91H143V85a11.65,11.65,0,0,1-1.23,1.55,3.33,3.33,0,0,0-.31-.45,12,12,0,0,0,2.61-4.18Zm4,4.24c.28,2.39.8,4,1.52,4.07.22,0,.37-.56.46-1.58a1.49,1.49,0,0,0,.37.23c-.17,1.47-.44,1.93-.83,1.92-1.09,0-1.68-1.93-2-4.64h-2.53v4l1.65-.43c0,.12,0,.3,0,.4a11.6,11.6,0,0,0-2.34.78,1.61,1.61,0,0,0-.21-.44.6.6,0,0,0,.42-.58v-7h0a27.89,27.89,0,0,0,4.69-1.05l.45.37a17.52,17.52,0,0,1-1.93.52c0,1.07.11,2.08.21,3h2.29v.47Zm-.52-.47c-.09-.9-.16-1.88-.2-2.9-.74.17-1.53.3-2.29.41v2.49Zm-.52,3.07a11.23,11.23,0,0,1,.94,1.8l-.4.16a9.84,9.84,0,0,0-.92-1.84Z"/><path class="cls-6" d="M152,82.32h5.5v.43H152Zm.3,4.37h5V90.8h-.47v-.51h-4.1V91h-.45Zm4.55-3.07v2.2h-4.17v-2.2Zm-4.1,3.48v1.15h1.83V87.1Zm1.83,2.77V88.66h-1.83v1.21Zm1.81-5.82h-3.25v1.36h3.25Zm.46,3H155v1.15h1.82Zm0,2.77V88.66H155v1.21Zm1.91-1.32h-.45V83h.45ZM160.55,82v8.24c0,.39-.12.55-.38.63a5.77,5.77,0,0,1-1.58.09,2.44,2.44,0,0,0-.17-.47c.66,0,1.24,0,1.4,0s.25-.06.25-.24V82Z"/><path class="cls-6" d="M163.69,87.19v3.12c0,.33-.09.46-.3.55a3.64,3.64,0,0,1-1.19.09,2.45,2.45,0,0,0-.16-.45c.48,0,.9,0,1,0s.19,0,.19-.2v-3c-.48.17-.92.33-1.31.45l-.17-.47,1.48-.49V84.39H161.9v-.46h1.34V81.85h.45v2.08h1.18v.46h-1.18v2.3l1.09-.36.07.45Zm7.44,3.17a1.3,1.3,0,0,0-.16.44H169.2c-1.55,0-2.64-.29-3.28-1.83a4.38,4.38,0,0,1-1.3,2,2.33,2.33,0,0,0-.37-.31,4.74,4.74,0,0,0,1.57-3.44l.47.05a7.29,7.29,0,0,1-.21,1.11,2.41,2.41,0,0,0,1.58,1.76v-3.5h-2.53v-.43h5.67v.43h-2.7V88h2.22v.43H168.1v1.82a5.67,5.67,0,0,0,1.11.09Zm-.92-5h-4.64V82.18h4.64Zm-.46-2.77H166v1h3.74Zm0,1.36H166v1h3.74Z"/><path class="cls-6" d="M174.86,82a15.06,15.06,0,0,1-1.08,2.21V91h-.48V85a11.8,11.8,0,0,1-1.21,1.5,2.42,2.42,0,0,0-.31-.45,12.1,12.1,0,0,0,2.63-4.14Zm6.29,5.33v.47h-6.54v-.47h1.68V84.57h-1.42V84.1h1.42V82h.47V84.1H179V82h.48V84.1H181v.47H179.5v2.76Zm-4.23,1.28A9.08,9.08,0,0,1,175,91a2.67,2.67,0,0,0-.4-.32,7.4,7.4,0,0,0,1.83-2.17Zm-.16-1.28H179V84.57h-2.26Zm2.4,1.18A11.71,11.71,0,0,1,181,90.72l-.4.27a12.87,12.87,0,0,0-1.82-2.26Z"/><path class="cls-6" d="M184.32,89.87c2.49-2.15,3.48-3.66,3.48-5a1.44,1.44,0,0,0-1.5-1.63,2.19,2.19,0,0,0-1.64.92l-.37-.36a2.71,2.71,0,0,1,2.07-1.06,1.93,1.93,0,0,1,2,2.11c0,1.55-1.19,3.09-3.15,4.92.4,0,.82-.06,1.21-.06h2.29v.52h-4.43Z"/><path class="cls-6" d="M197.09,82a3.93,3.93,0,0,1-.26.41A11.93,11.93,0,0,0,201.2,86a1.43,1.43,0,0,0-.35.42,12.78,12.78,0,0,1-4.29-3.59,12.4,12.4,0,0,1-4.24,3.58A1.62,1.62,0,0,0,192,86a11.3,11.3,0,0,0,4.72-4.15Zm-.78,2.59h.49V91h-.49Z"/><path class="cls-6" d="M205.75,87.2a2.62,2.62,0,0,0,0,.42,18.09,18.09,0,0,0-3.46.67,3.27,3.27,0,0,0-.16-.47,2,2,0,0,0,.78-.68,12.74,12.74,0,0,0,1.27-1.56,10.81,10.81,0,0,0-2,.3,3.27,3.27,0,0,0-.16-.47c.17,0,.36-.28.6-.64a17.15,17.15,0,0,0,1.6-2.89l.46.2a20.38,20.38,0,0,1-1.91,3.23l1.7-.18c.25-.37.5-.75.71-1.13l.44.25a22.82,22.82,0,0,1-2.6,3.35Zm-3.65,2.62c.93-.16,2.36-.45,3.75-.74l0,.44-3.68.77ZM210.84,84c-.15,4.63-.28,6.14-.66,6.6a.84.84,0,0,1-.7.32,12.4,12.4,0,0,1-1.42,0,1.1,1.1,0,0,0-.16-.47c.64.06,1.23.06,1.45.06a.4.4,0,0,0,.4-.15c.32-.35.48-1.89.61-6.15h-3.22a8.09,8.09,0,0,1-.89,1.55,2.39,2.39,0,0,0-.41-.26,9.91,9.91,0,0,0,1.62-3.64l.48.11a13.37,13.37,0,0,1-.62,1.78h3.52Zm-2.09,4.11a11,11,0,0,0-2-2.24l.35-.28a11.72,11.72,0,0,1,2,2.22Z"/><path class="cls-6" d="M217.27,87.42a9.33,9.33,0,0,0,4.13,2.75,2.38,2.38,0,0,0-.34.43A10.37,10.37,0,0,1,217,87.74V91h-.49V87.79a10.86,10.86,0,0,1-4,2.8,1.7,1.7,0,0,0-.34-.42,9.47,9.47,0,0,0,4-2.75h-3v-2.7h3.27V83.44h-4V83h4V81.83H217V83h4v.45h-4v1.28h3.29v2.7ZM213.71,87h2.79V85.18h-2.79ZM217,85.18V87h2.81V85.18Z"/></g></g></svg>