<svg xmlns="http://www.w3.org/2000/svg" viewBox="0 0 396.06 212.02"><defs><style>.cls-1,.cls-10,.cls-15,.cls-2,.cls-4,.cls-6,.cls-8{fill:none;stroke-miterlimit:10;}.cls-1{stroke:#66c6f2;}.cls-2{stroke:#a3dabc;}.cls-3{fill:#fff;}.cls-4{stroke:#094;}.cls-5{fill:#094;}.cls-6{stroke:#00a0e9;}.cls-7{fill:#00a0e9;}.cls-8{stroke:#f9c2c6;}.cls-9{fill:#f9c2c6;}.cls-10{stroke:#e60012;}.cls-11{fill:#e60012;}.cls-12{fill:#a3dabc;}.cls-13{fill:#66c6f2;}.cls-14{fill:#4fd1d9;}.cls-15{stroke:#231815;}</style></defs><title>dof</title><g id="图层_2" data-name="图层 2"><g id="coordinate_system"><path class="cls-1" d="M68.73,32.71c1.94-.14,3.94-.2,6-.2,17.76,0,32.16,5.16,32.16,11.54a5.62,5.62,0,0,1-2,4"/><path class="cls-2" d="M151,90a70.11,70.11,0,0,1,.36,7.07,64.06,64.06,0,0,1-1.47,14"/><line class="cls-3" x1="26.44" y1="96.94" x2="179.72" y2="96.94"/><line class="cls-4" x1="26.44" y1="96.94" x2="170.86" y2="96.94"/><polygon class="cls-5" points="168.88 99.84 179.72 96.94 168.88 94.03 168.88 99.84"/><line class="cls-3" x1="74.72" y1="134.82" x2="74.72"/><line class="cls-6" x1="74.72" y1="134.82" x2="74.72" y2="8.86"/><polygon class="cls-7" points="77.62 10.84 74.72 0 71.81 10.84 77.62 10.84"/><path class="cls-8" d="M34.59,156.17a23,23,0,0,1-15.68-13.9"/><polygon class="cls-9" points="39.5 156.75 32.98 153 34.24 156.04 32.22 158.64 39.5 156.75"/><line class="cls-3" y1="171.65" x2="101.61" y2="70.04"/><line class="cls-10" x1="6.26" y1="165.39" x2="101.61" y2="70.04"/><polygon class="cls-11" points="9.72 166.04 0 171.65 5.61 161.93 9.72 166.04"/><path class="cls-2" d="M143.38,124.74a6.68,6.68,0,0,1-4.53,2c-6.89,0-12.47-13.29-12.47-29.68S132,67.41,138.85,67.41c5.86,0,10.78,9.63,12.11,22.6"/><polygon class="cls-12" points="147 121.37 139.96 124.03 143.11 124.99 143.84 128.2 147 121.37"/><path class="cls-8" d="M18.91,142.27A25.68,25.68,0,0,1,17,132.56c0-13.35,10.06-24.18,22.47-24.18S62,119.21,62,132.56A25.23,25.23,0,0,1,56.77,148"/><path class="cls-1" d="M86.87,54.74a84.26,84.26,0,0,1-12.15.85c-17.77,0-32.17-5.16-32.17-11.54,0-5.64,11.28-10.34,26.18-11.34"/><polygon class="cls-13" points="91.76 54.02 84.45 52.22 86.5 54.8 85.28 57.85 91.76 54.02"/><circle class="cls-14" cx="17.03" cy="170.67" r="5.62"/><path class="cls-3" d="M18.15,173.67H17v-4.32a4,4,0,0,1-1.48.87v-1a3.19,3.19,0,0,0,1-.56,2.1,2.1,0,0,0,.72-1h.93Z"/><circle class="cls-14" cx="172.78" cy="108.38" r="5.62"/><path class="cls-3" d="M174.66,110.32v1.06h-3.75a2.78,2.78,0,0,1,.37-1.14,7.42,7.42,0,0,1,1.2-1.44,7.53,7.53,0,0,0,.89-1,1.37,1.37,0,0,0,.22-.7.84.84,0,0,0-.2-.59.79.79,0,0,0-1.06,0,1.2,1.2,0,0,0-.23.72l-1.06-.11a2,2,0,0,1,.59-1.36,2,2,0,0,1,1.26-.41,1.75,1.75,0,0,1,1.3.48,1.61,1.61,0,0,1,.47,1.18,2.19,2.19,0,0,1-.14.77,3.23,3.23,0,0,1-.42.76,7.44,7.44,0,0,1-.7.77c-.34.33-.56.55-.65.66a1.46,1.46,0,0,0-.21.32Z"/><circle class="cls-14" cx="86.87" cy="6.93" r="5.62"/><path class="cls-3" d="M85,8.27,86,8.14a1,1,0,0,0,.27.64.75.75,0,0,0,.53.22.72.72,0,0,0,.57-.27A1,1,0,0,0,87.64,8a1,1,0,0,0-.22-.67.69.69,0,0,0-.54-.25,1.71,1.71,0,0,0-.5.08l.12-.92a.9.9,0,0,0,.67-.2.68.68,0,0,0,.23-.55A.64.64,0,0,0,87.23,5a.57.57,0,0,0-.45-.17.61.61,0,0,0-.47.2.94.94,0,0,0-.24.58l-1-.17a2.28,2.28,0,0,1,.31-.86,1.42,1.42,0,0,1,.58-.5,1.93,1.93,0,0,1,.85-.18,1.64,1.64,0,0,1,1.27.53,1.36,1.36,0,0,1-.41,2.21,1.29,1.29,0,0,1,.77.49,1.4,1.4,0,0,1,.29.91,1.84,1.84,0,0,1-1.89,1.86,1.8,1.8,0,0,1-1.27-.46A1.84,1.84,0,0,1,85,8.27Z"/><circle class="cls-14" cx="52.57" cy="140.44" r="5.62"/><path class="cls-3" d="M52.88,141.23v-2l-1.44,2Zm0,2.21v-1.2H50.32v-1l2.71-3.8h1v3.79h.78v1H54v1.2Z"/><circle class="cls-14" cx="138.12" cy="110.97" r="5.62"/><path class="cls-3" d="M136.25,112.33l1.06-.12a1,1,0,0,0,.27.61.7.7,0,0,0,1.09-.06,1.44,1.44,0,0,0,.23-.88,1.28,1.28,0,0,0-.23-.83.74.74,0,0,0-.6-.27,1,1,0,0,0-.82.43l-.87-.13.55-3.11h2.82V109h-2l-.17,1a1.62,1.62,0,0,1,.73-.19,1.56,1.56,0,0,1,1.2.56,2.08,2.08,0,0,1,.5,1.44,2.21,2.21,0,0,1-.4,1.31,1.74,1.74,0,0,1-1.51.8,1.78,1.78,0,0,1-1.26-.45A1.88,1.88,0,0,1,136.25,112.33Z"/><circle class="cls-14" cx="90.62" cy="44.15" r="5.62"/><path class="cls-3" d="M90,45.07a1.32,1.32,0,0,0,.24.85.71.71,0,0,0,.55.3.63.63,0,0,0,.5-.25,1.28,1.28,0,0,0,.2-.8,1.37,1.37,0,0,0-.21-.84.67.67,0,0,0-1.07,0A1.16,1.16,0,0,0,90,45.07Zm2.44-2.46-1,.12a.79.79,0,0,0-.2-.49.57.57,0,0,0-.42-.16.66.66,0,0,0-.57.32,2.73,2.73,0,0,0-.3,1.33,1.25,1.25,0,0,1,1-.5,1.48,1.48,0,0,1,1.15.54,2.29,2.29,0,0,1,0,2.83,1.68,1.68,0,0,1-1.3.55,1.71,1.71,0,0,1-1.4-.69,3.72,3.72,0,0,1-.55-2.27,3.76,3.76,0,0,1,.57-2.33,1.85,1.85,0,0,1,1.49-.71,1.54,1.54,0,0,1,1.06.37A1.82,1.82,0,0,1,92.39,42.61Z"/><circle class="cls-14" cx="368.05" cy="97.08" r="5.62"/><path class="cls-3" d="M369.17,100.08H368V95.77a3.92,3.92,0,0,1-1.48.86v-1a3.56,3.56,0,0,0,1-.56,2.08,2.08,0,0,0,.72-1h.93Z"/><circle class="cls-14" cx="320.59" cy="35.52" r="5.62"/><path class="cls-3" d="M322.46,37.46v1.06h-3.75a3.12,3.12,0,0,1,.37-1.14,7.14,7.14,0,0,1,1.2-1.43,7.42,7.42,0,0,0,.89-1,1.3,1.3,0,0,0,.22-.7.82.82,0,0,0-.19-.59.69.69,0,0,0-.53-.21.72.72,0,0,0-.54.22,1.16,1.16,0,0,0-.22.72l-1.07-.12a1.74,1.74,0,0,1,1.85-1.77A1.72,1.72,0,0,1,322,33a1.6,1.6,0,0,1,.47,1.19,2.22,2.22,0,0,1-.13.77,3.14,3.14,0,0,1-.43.76,6.52,6.52,0,0,1-.7.76c-.34.33-.55.55-.64.66a2.64,2.64,0,0,0-.22.32Z"/><circle class="cls-14" cx="333.95" cy="111.38" r="5.62"/><path class="cls-3" d="M332.07,112.72l1.05-.13a1,1,0,0,0,.27.63.72.72,0,0,0,.53.23.71.71,0,0,0,.56-.27,1,1,0,0,0,.23-.71,1,1,0,0,0-.22-.68.68.68,0,0,0-.53-.24,1.66,1.66,0,0,0-.5.08l.12-.92a.91.91,0,0,0,.67-.2.69.69,0,0,0,.23-.56.63.63,0,0,0-.17-.47.58.58,0,0,0-.45-.18.62.62,0,0,0-.47.21.94.94,0,0,0-.24.58l-1-.18a2.4,2.4,0,0,1,.32-.85,1.42,1.42,0,0,1,.58-.5,1.92,1.92,0,0,1,.84-.18,1.66,1.66,0,0,1,1.28.53,1.36,1.36,0,0,1-.41,2.21,1.25,1.25,0,0,1,.77.49,1.4,1.4,0,0,1,.29.91,1.92,1.92,0,0,1-3.16,1.4A1.86,1.86,0,0,1,332.07,112.72Z"/><rect class="cls-15" x="221.8" y="19.97" width="173.77" height="131.7"/><line class="cls-3" x1="251.84" y1="85.83" x2="365.52" y2="85.83"/><line class="cls-6" x1="251.84" y1="85.83" x2="365.52" y2="85.83"/><polygon class="cls-7" points="363.54 88.73 374.38 85.83 363.54 82.92 363.54 88.73"/><line class="cls-3" x1="308.68" y1="134.19" x2="308.68" y2="37.46"/><line class="cls-4" x1="308.68" y1="134.19" x2="308.68" y2="37.46"/><polygon class="cls-5" points="311.58 39.45 308.68 28.61 305.77 39.45 311.58 39.45"/><path class="cls-10" d="M329,100.66a23.79,23.79,0,1,1,1.71-27.23"/><polygon class="cls-11" points="332.11 96.8 325.54 100.47 328.8 100.95 329.99 104.02 332.11 96.8"/><path d="M70.68,196.81v.54H60.63v-.54h4.7v-3.42H61.75v-.54h7.83v.54H65.92v3.42ZM61.23,191h-.56v-2.56h4.9c-.19-.43-.46-1-.69-1.4l.57-.17c.28.49.62,1.13.81,1.57h4.36v2.23h-.57V189H61.23Zm-.44,1.13a11,11,0,0,0,3.5-2.29l.41.34a12.92,12.92,0,0,1-3.56,2.43Zm6.11-2.22a33.75,33.75,0,0,1,3.63,2.17l-.35.45a32.87,32.87,0,0,0-3.61-2.25Z"/><path d="M72.88,189.48h.58v8.3h-.58Zm.63-2.37a9.23,9.23,0,0,1,1.5,1.63l-.48.32a9.35,9.35,0,0,0-1.47-1.69Zm2,3.24h4.29v5.28H75.47Zm6.91,6.59c0,.41-.08.58-.34.68a5.42,5.42,0,0,1-1.48.1,4,4,0,0,0-.22-.56c.58,0,1.11,0,1.25,0s.22-.06.22-.22v-8.79H75.94v-.54h6.44ZM76,192.73h3.21v-1.87H76Zm0,2.4h3.21v-1.9H76Z"/><path d="M93.72,188.57v9.14h-.58v-.65H86.32v.73h-.57v-9.22h3c.21-.53.45-1.22.58-1.7l.61.1c-.19.53-.42,1.13-.62,1.6Zm-7.4.56v2.13h6.82v-2.13Zm0,2.68v2.06h6.82v-2.06Zm6.82,4.71v-2.1H86.32v2.1Z"/><path d="M106.15,189.24v8.44h-.58v-.74H97.69v.82h-.57v-8.52h4.21v-2.35h.58v2.35Zm-8.46.58v3h3.64v-3Zm0,6.56h3.64v-3H97.69Zm4.22-6.56v3h3.66v-3Zm3.66,6.56v-3h-3.66v3Z"/><path d="M109.83,191.47a14,14,0,0,1-1.15,6.31,2,2,0,0,0-.5-.3c1-1.77,1.09-4.25,1.09-6v-3.28H114a7.8,7.8,0,0,0-.6-1.19l.56-.16a9.2,9.2,0,0,1,.7,1.35h4.28v.54h-9.1Zm8,2.47a6,6,0,0,1-2.69,2.4,14.58,14.58,0,0,0,4,.92,1.82,1.82,0,0,0-.34.51,15.61,15.61,0,0,1-4.24-1.14,17.07,17.07,0,0,1-4.44,1.07,3.07,3.07,0,0,0-.26-.51,16.61,16.61,0,0,0,4.1-.87,6.44,6.44,0,0,1-2.18-1.9l.4-.17h-1.76v-.5h7l.12,0Zm-5.56-1.14v-2h-2.11v-.5h2.11v-1.19h.55v1.19h3.36v-1.19h.56v1.19h2.06v.5h-2.06v2Zm0,1.45a5.93,5.93,0,0,0,2.28,1.83,5.92,5.92,0,0,0,2.46-1.83Zm.58-3.49v1.55h3.36v-1.55Z"/><path d="M72.61,207.84a5.28,5.28,0,0,1,1.6-3.78l.31.19a5,5,0,0,0,0,7.18l-.31.19A5.26,5.26,0,0,1,72.61,207.84Z"/><path d="M78.26,210.56v.91h-.37v-.85l-2.83.36,0-.35.82-.09v-2.87H75v-.34h7.11v.34H78.26v2.57l.47-.05v.31Zm2.94-3.76H76.07v-2.32H81.2Zm-5,.87v.68h1.68v-.68Zm0,1.69h1.68v-.69H76.21Zm0,1.13,1.68-.2v-.61H76.21Zm4.6-5.7H76.45v.69h4.36Zm0,1H76.45v.71h4.36Zm1,2.61a4.47,4.47,0,0,1-1.24,1.92,4.11,4.11,0,0,0,1.64.83,2,2,0,0,0-.23.32,5,5,0,0,1-1.69-.91,5.69,5.69,0,0,1-1.66.89,1.12,1.12,0,0,0-.21-.29,5,5,0,0,0,1.62-.84A4.56,4.56,0,0,1,79,208.64h-.39v-.33h2.94l.08,0Zm-2.48.24a3.9,3.9,0,0,0,1,1.45,4,4,0,0,0,1.06-1.45Z"/><path d="M87,207a6.27,6.27,0,0,0,3.24,4.12,2.08,2.08,0,0,0-.29.36,6.8,6.8,0,0,1-3.32-4.37,5.75,5.75,0,0,1-3.31,4.38,1.28,1.28,0,0,0-.29-.32A5.44,5.44,0,0,0,86.23,207H83.14v-.38h3.15a15.69,15.69,0,0,0,.16-2.37h.4a16.94,16.94,0,0,1-.16,2.37H90.1V207Z"/><path d="M97.73,206.4c-.13,3.27-.24,4.39-.57,4.74a.74.74,0,0,1-.57.25c-.26,0-.78,0-1.27,0a.76.76,0,0,0-.13-.4,12.29,12.29,0,0,0,1.27.06c.19,0,.28,0,.35-.11.27-.26.4-1.36.52-4.34h-3a6.29,6.29,0,0,1-3,4.82,1.28,1.28,0,0,0-.29-.28A6.06,6.06,0,0,0,94,206.56H91.32v-.39H94a9.84,9.84,0,0,0,0-1.07v-.86h.39v.86c0,.34,0,.7,0,1.07h3.36Zm-4.79-.59a7.64,7.64,0,0,0-.9-1.2l.32-.16a7.19,7.19,0,0,1,.91,1.17Zm2.92,3.64a8.8,8.8,0,0,0-1.19-1.61l.31-.16a7.81,7.81,0,0,1,1.21,1.57Z"/><path d="M103.91,205.81a1.23,1.23,0,0,0-1-.46c-.88,0-1.62.69-1.65,2.7a1.9,1.9,0,0,1,1.41-.76c1,0,1.58.63,1.58,1.83a1.7,1.7,0,0,1-1.57,1.86c-1.13,0-1.87-1-1.87-2.85,0-2.35,1-3.18,2.09-3.18a1.57,1.57,0,0,1,1.24.56Zm-.07,3.31c0-.85-.35-1.45-1.18-1.45a1.74,1.74,0,0,0-1.34.83c.07,1.28.53,2.09,1.42,2.09C103.37,210.59,103.84,210,103.84,209.12Z"/><path d="M106.66,207.84a5.26,5.26,0,0,1-1.6,3.78l-.31-.19a5,5,0,0,0,0-7.18l.31-.19A5.28,5.28,0,0,1,106.66,207.84Z"/><path d="M289.93,193h-5.06v4.37h-.58V193h-5v-.57h5v-4.51h-4.38v-.57h9.36v.57h-4.4v4.51h5.06Zm-8.6-4.39a15.15,15.15,0,0,1,1.24,2.87l-.53.2a15.59,15.59,0,0,0-1.22-2.91Zm5.05,3a19.25,19.25,0,0,0,1.46-3l.6.2a27.07,27.07,0,0,1-1.57,3Z"/><path d="M296.83,187.92c-.18.57-.36,1.23-.54,1.75h5v7.7h-.59v-.66h-8.15v.66H292v-7.7h3.75c.17-.52.34-1.19.46-1.75h-4.78v-.57h10.47v.57Zm-4.31,8.25h2v-5.95h-2Zm5.51-5.95h-2.95v1.62H298Zm0,2.12h-2.95V194H298Zm-2.95,3.83H298v-1.69h-2.95Zm5.59-5.95h-2.1v5.95h2.1Z"/><path d="M312.69,188.17v9.14h-.59v-.65h-6.81v.73h-.57v-9.22h3c.21-.53.45-1.22.58-1.7l.61.11c-.19.52-.42,1.12-.62,1.59Zm-7.4.56v2.13h6.81v-2.13Zm0,2.68v2.06h6.81v-2.06Zm6.81,4.71V194h-6.81v2.1Z"/><path d="M325.12,188.84v8.44h-.58v-.74h-7.88v.82h-.57v-8.52h4.21v-2.35h.58v2.35Zm-8.46.58v3h3.64v-3Zm0,6.56h3.64v-3h-3.64Zm4.22-6.56v3h3.66v-3Zm3.66,6.56v-3h-3.66v3Z"/><path d="M328.8,191.07a14,14,0,0,1-1.15,6.31,1.85,1.85,0,0,0-.51-.3c1-1.77,1.1-4.25,1.1-6v-3.28H333a7.8,7.8,0,0,0-.6-1.19l.55-.16a8.41,8.41,0,0,1,.71,1.35h4.28v.54h-9.1Zm8,2.47a6.06,6.06,0,0,1-2.69,2.4,14.86,14.86,0,0,0,3.95.93,1.64,1.64,0,0,0-.34.5,15.51,15.51,0,0,1-4.24-1.14A17.17,17.17,0,0,1,329,197.3a3.07,3.07,0,0,0-.26-.51,16.61,16.61,0,0,0,4.1-.87,6.57,6.57,0,0,1-2.19-1.9l.41-.17h-1.76v-.5h7l.12,0Zm-5.57-1.14v-2h-2.11v-.51h2.11v-1.19h.56v1.19h3.35v-1.19h.57v1.19h2.06v.51h-2.06v2Zm0,1.45a5.93,5.93,0,0,0,2.28,1.83,6,6,0,0,0,2.46-1.83Zm.58-3.48v1.54h3.35v-1.54Z"/><path d="M291.82,208a7.39,7.39,0,0,1,1.17-4l.29.16a7.56,7.56,0,0,0,0,7.72L293,212A7.29,7.29,0,0,1,291.82,208Z"/><path d="M297.23,210.16v.91h-.37v-.85l-2.83.36,0-.35.83-.09v-2.87H294v-.34h7.11v.34h-3.89v2.57l.46-.05v.31Zm2.94-3.76H295v-2.32h5.13Zm-5,.87V208h1.68v-.68Zm0,1.69h1.68v-.69h-1.68Zm0,1.13,1.68-.2v-.61h-1.68Zm4.6-5.7h-4.36v.69h4.36Zm0,1h-4.36v.71h4.36Zm1,2.61a4.47,4.47,0,0,1-1.24,1.92,4.11,4.11,0,0,0,1.64.83,2,2,0,0,0-.23.32,4.92,4.92,0,0,1-1.69-.91,5.69,5.69,0,0,1-1.66.89,1.12,1.12,0,0,0-.21-.29,5.12,5.12,0,0,0,1.62-.84,4.56,4.56,0,0,1-1.07-1.67h-.4v-.33h2.95l.08,0Zm-2.48.24a3.9,3.9,0,0,0,1,1.45,4,4,0,0,0,1.06-1.45Z"/><path d="M305.93,206.58a6.29,6.29,0,0,0,3.25,4.12,2.08,2.08,0,0,0-.29.36,6.8,6.8,0,0,1-3.32-4.37,5.78,5.78,0,0,1-3.31,4.38,1.47,1.47,0,0,0-.29-.32,5.44,5.44,0,0,0,3.23-4.17h-3.09v-.38h3.15a15.69,15.69,0,0,0,.16-2.37h.39a15.37,15.37,0,0,1-.15,2.37h3.41v.38Z"/><path d="M316.7,206c-.13,3.27-.25,4.39-.57,4.74a.74.74,0,0,1-.57.25c-.27,0-.78,0-1.27,0a.79.79,0,0,0-.13-.4,12.19,12.19,0,0,0,1.27.06c.18,0,.28,0,.35-.11.27-.26.4-1.36.52-4.34h-3a6.29,6.29,0,0,1-2.95,4.82,1.28,1.28,0,0,0-.29-.28,6.06,6.06,0,0,0,2.86-4.54h-2.63v-.39H313c0-.37,0-.73,0-1.07v-.86h.39v.86c0,.34,0,.7,0,1.07h3.36Zm-4.8-.59a7.52,7.52,0,0,0-.89-1.2l.32-.16a7.79,7.79,0,0,1,.91,1.17Zm2.93,3.64a9.3,9.3,0,0,0-1.19-1.61l.31-.16a8.62,8.62,0,0,1,1.21,1.57Z"/><path d="M319.6,209.79l.26-.32a2,2,0,0,0,1.54.72,1.22,1.22,0,0,0,1.3-1.25c0-.79-.55-1.31-1.94-1.31v-.39c1.28,0,1.73-.56,1.73-1.25a1,1,0,0,0-1.11-1.06,1.83,1.83,0,0,0-1.28.62l-.27-.32a2.27,2.27,0,0,1,1.56-.69A1.42,1.42,0,0,1,323,206a1.46,1.46,0,0,1-1.07,1.44v0a1.5,1.5,0,0,1,1.27,1.5,1.62,1.62,0,0,1-1.75,1.64A2.36,2.36,0,0,1,319.6,209.79Z"/><path d="M323.93,211.88a7.62,7.62,0,0,0,0-7.72l.29-.16a7.46,7.46,0,0,1,1.16,4,7.37,7.37,0,0,1-1.16,4Z"/></g></g></svg>