<svg xmlns="http://www.w3.org/2000/svg" viewBox="0 0 245.99 57.84"><defs><style>.cls-1{fill:none;stroke:#231815;stroke-miterlimit:10;}.cls-2{fill:#231815;}</style></defs><title>frame1</title><g id="图层_2" data-name="图层 2"><g id="coordinate_system"><path d="M14.87,4.16c.37.49,1.43,2.12,1.67,2.51l-.45.54c-.22-.46-.78-1.45-1.22-2.17v7.64h-.66V5a17.51,17.51,0,0,1-2,4.63,4,4,0,0,0-.42-.6,17.29,17.29,0,0,0,2.36-5.65H12V2.75h2.22V0h.66V2.75h1.78v.64H14.87Zm9.34-1.41c-.23,6.71-.42,8.83-.95,9.49a1.08,1.08,0,0,1-.91.44,15.25,15.25,0,0,1-1.74,0A1.39,1.39,0,0,0,20.4,12c.79.07,1.48.07,1.74.07a.52.52,0,0,0,.53-.21c.44-.49.66-2.71.87-8.86H18.25a11.4,11.4,0,0,1-1.33,2.41,5.51,5.51,0,0,0-.59-.4,12.89,12.89,0,0,0,2.21-5l.66.14c-.2.76-.43,1.5-.69,2.2h5.7Zm-2.63,7c-.07-.3-.2-.67-.33-1.07a22.63,22.63,0,0,0-4,.89,5,5,0,0,0-.2-.63c.19-.05.38-.4.62-.86A22.08,22.08,0,0,0,19.14,4.1l.66.19A25.15,25.15,0,0,1,18,8.67l3-.56a19.44,19.44,0,0,0-.84-1.9L20.73,6a20.52,20.52,0,0,1,1.38,3.44Z"/><path d="M29.81.24A26.73,26.73,0,0,1,28.4,3.31v9.37h-.66V4.41a13.89,13.89,0,0,1-1.54,2,5.08,5.08,0,0,0-.42-.6A17,17,0,0,0,29.17.06ZM38.4,7.76H34.46v5h-.67v-5H29.63V7.1h4.16V3.61H31.28a9.9,9.9,0,0,1-1.11,2.33,4,4,0,0,0-.57-.38A12,12,0,0,0,31.36.66L32,.78A20.42,20.42,0,0,1,31.48,3h2.31V.17h.67V3h3.36v.65H34.46V7.1H38.4Z"/><path d="M2.73,55.48a11.54,11.54,0,0,1,1.3.85A6.73,6.73,0,0,0,7.69,57c1.67,0,3.64-.1,5.06-.23a2.26,2.26,0,0,0-.2.73c-.9.06-3.38.14-4.87.14a7,7,0,0,1-3.88-.8c-.54-.35-1-.84-1.38-.84-.49,0-1.19.79-1.94,1.78L0,57.26a6.06,6.06,0,0,1,2.07-1.77V50.73H0v-.64H2.73Zm.21-7.19A29.57,29.57,0,0,0,.43,46.46L.9,46c.82.53,1.93,1.28,2.5,1.75Zm8.67,7.2c-.15-.3-.35-.68-.59-1.1-5.57.47-6.12.53-6.45.68a4.86,4.86,0,0,0-.24-.7c.21,0,.45-.39.74-.85A21.79,21.79,0,0,0,6.82,50H3.75v-.64h8.91V50h-5a24,24,0,0,1-2.25,4.22l5.33-.41c-.52-.89-1.12-1.89-1.66-2.71l.57-.24c.92,1.39,2.05,3.25,2.6,4.31Zm0-8.74h-7v-.64h7Z"/><path d="M19.8,55.94c-.09-.31-.2-.67-.34-1.08-4.1.84-4.55,1-4.83,1.14v0a3.42,3.42,0,0,0-.24-.65c.2-.06.41-.48.62-1a25.76,25.76,0,0,0,1.24-4H14.2V49.7h6.12v.63H17a29.46,29.46,0,0,1-1.59,4.73l3.9-.77c-.27-.8-.62-1.67-.93-2.41l.58-.15a38.87,38.87,0,0,1,1.48,4Zm.25-9H14.71v-.63h5.34Zm6.46,1.92c-.21,5.81-.39,7.75-.88,8.33a1.19,1.19,0,0,1-.93.44c-.42,0-1.2,0-2-.06a1.64,1.64,0,0,0-.21-.66c.86.07,1.68.07,2,.07A.55.55,0,0,0,25,56.8c.4-.44.61-2.34.81-7.68H23.36c-.2,3.43-.8,6.75-2.9,8.69a1.52,1.52,0,0,0-.55-.45c2-1.78,2.62-5,2.8-8.24H20.5v-.66h2.24c0-1,.06-2.07.06-3.08h.66c0,1,0,2-.08,3.08h3.13Z"/><path d="M28.29,45.82h7.64v.6H28.29Zm.42,6.06h7v5.7H35v-.7H29.34v.91h-.63ZM35,47.62v3.06H29.25V47.62Zm-5.69,4.84V54h2.54V52.46Zm2.54,3.83V54.61H29.34v1.68Zm2.51-8.08H29.88V50.1h4.51ZM35,52.46H32.5V54H35Zm0,3.83V54.61H32.5v1.68Zm2.65-1.83h-.63V46.81h.63Zm2.48-9.06V56.84c0,.53-.17.76-.52.87a8.1,8.1,0,0,1-2.2.12,3,3,0,0,0-.24-.65c.93,0,1.73,0,1.95,0s.35-.09.35-.33V45.4Z"/><path d="M87.83,31.05a10.55,10.55,0,0,1,1.31.86,6.68,6.68,0,0,0,3.65.7c1.67,0,3.64-.1,5.06-.23a2.64,2.64,0,0,0-.2.73c-.89.06-3.37.14-4.87.14a7,7,0,0,1-3.88-.8c-.53-.35-1-.84-1.37-.84-.5,0-1.2.79-2,1.78l-.48-.56a6,6,0,0,1,2.07-1.76V26.3h-2v-.64h2.71ZM88,23.87A29.21,29.21,0,0,0,85.54,22L86,21.6c.82.53,1.93,1.29,2.51,1.75Zm8.67,7.2c-.15-.31-.35-.69-.58-1.11-5.58.48-6.13.53-6.46.69a3.42,3.42,0,0,0-.24-.7c.21-.05.45-.4.74-.86a20.36,20.36,0,0,0,1.75-3.51H88.86v-.65h8.9v.65H92.71a24.55,24.55,0,0,1-2.24,4.21l5.32-.4c-.52-.9-1.12-1.9-1.65-2.72l.56-.24c.92,1.39,2.06,3.25,2.6,4.31Zm0-8.74h-7v-.65h7Z"/><path d="M104.9,31.51c-.08-.3-.19-.67-.33-1.07-4.11.84-4.56,1-4.84,1.13h0a3.27,3.27,0,0,0-.24-.66c.2-.06.41-.48.62-1a26.63,26.63,0,0,0,1.25-4H99.3v-.63h6.12v.63h-3.36a29.13,29.13,0,0,1-1.59,4.73l3.9-.77c-.27-.8-.62-1.66-.93-2.41l.58-.15a38.87,38.87,0,0,1,1.48,4Zm.25-9H99.82v-.63h5.33Zm6.46,1.92c-.21,5.81-.39,7.75-.88,8.34a1.2,1.2,0,0,1-.93.43c-.42,0-1.2,0-2-.06a1.55,1.55,0,0,0-.21-.65c.87.07,1.68.07,2,.07s.43,0,.56-.2c.41-.43.62-2.34.81-7.68h-2.49c-.2,3.44-.8,6.76-2.9,8.69a1.44,1.44,0,0,0-.55-.45c2-1.78,2.62-5,2.8-8.24H105.6V24h2.24c0-1,.06-2.07.06-3.08h.66c0,1,0,2.05-.07,3.08h3.12Z"/><path d="M114.42,23.07a8.88,8.88,0,0,1-1,1.74,3.47,3.47,0,0,0-.4-.57,9.54,9.54,0,0,0,1.45-3.5l.6.16a12,12,0,0,1-.46,1.55h2.18v.62Zm2.41,7.79a3.37,3.37,0,0,0,.22.54,13.86,13.86,0,0,0-2.52,1.78,2.14,2.14,0,0,0-.41-.5,1.58,1.58,0,0,0,.68-1.23V28.32h-1.59V27.7h1.59V25.48h-1v-.62h2.73v.62h-1.11V27.7h1.53v.62h-1.53v3.45Zm2.09.3a10.73,10.73,0,0,1,1,.68,4.94,4.94,0,0,0,2.66.56,32.37,32.37,0,0,0,3.38-.16,2.41,2.41,0,0,0-.2.73c-.77,0-2.34.09-3.21.09a4.89,4.89,0,0,1-2.81-.66c-.48-.34-.84-.69-1.14-.69s-1,.69-1.55,1.49l-.48-.59a5.18,5.18,0,0,1,1.72-1.46V26.3h-1.13v-.63h1.77Zm-.41-7.29a12.78,12.78,0,0,0-1.26-2.26l.54-.24a12.68,12.68,0,0,1,1.29,2.24Zm3.92,5.22h-3.09v-.63h3.09V26.23H121a2,2,0,0,0-1,.19,2.79,2.79,0,0,0-.22-.63c.21-.06.4-.44.64-.94a22,22,0,0,0,.85-2.05h-1.79v-.63h2a14.16,14.16,0,0,0,.44-1.5l.67.16-.42,1.34h3.54v.63h-3.78a24.69,24.69,0,0,1-1.23,2.83h1.82V23.84h.66v1.79h2.28v.6h-2.28v2.23h2.59v.63h-2.59v2.65h-.66Z"/><path d="M224.6,28.08c-.3-.53-1.11-1.73-1.68-2.55v7.82h-.66V25.69A16.61,16.61,0,0,1,220,30.41a2.54,2.54,0,0,0-.42-.58,16.86,16.86,0,0,0,2.59-5.74h-2.37v-.66h2.48V20.67h.66v2.76h2.17v.66h-2.17v.52c.47.57,1.85,2.41,2.14,2.84Zm6.6,4.51a.52.52,0,0,0,.33-.11c.09-.08.13-.22.16-.54s.05-1.11.05-2.12a1.39,1.39,0,0,0,.58.32c0,.81,0,1.88-.1,2.19a1,1,0,0,1-.34.73,1.15,1.15,0,0,1-.64.16h-.63a1.24,1.24,0,0,1-.69-.21c-.19-.15-.26-.36-.26-1.57V22.12h-3v3.81c0,2.31-.28,5.37-2.27,7.46a2.55,2.55,0,0,0-.51-.46c1.92-2,2.11-4.8,2.11-7V21.47h4.36V31.61a2,2,0,0,0,.1.9.49.49,0,0,0,.29.08Z"/><path d="M236.65,24.83c.37.49,1.43,2.12,1.67,2.51l-.45.55c-.22-.47-.78-1.46-1.22-2.17v7.63H236V25.69a17.58,17.58,0,0,1-2,4.62,4,4,0,0,0-.42-.6,17.29,17.29,0,0,0,2.36-5.65h-2.13v-.64H236V20.67h.66v2.75h1.78v.64h-1.78ZM246,23.42c-.23,6.71-.42,8.84-1,9.5a1.1,1.1,0,0,1-.91.43,15.25,15.25,0,0,1-1.74,0,1.42,1.42,0,0,0-.21-.67c.79.07,1.48.07,1.74.07a.52.52,0,0,0,.53-.21c.44-.49.66-2.7.87-8.85H240a11.92,11.92,0,0,1-1.33,2.41c-.14-.1-.41-.31-.59-.41a12.76,12.76,0,0,0,2.21-5l.66.14c-.2.76-.43,1.5-.69,2.2H246Zm-2.63,7c-.07-.29-.2-.67-.33-1.06a22.29,22.29,0,0,0-4,.88,5.58,5.58,0,0,0-.2-.63c.19,0,.38-.39.62-.86a21.89,21.89,0,0,0,1.44-3.93l.66.18a24.84,24.84,0,0,1-1.78,4.38l3-.56a19.44,19.44,0,0,0-.84-1.9l.51-.17a20.59,20.59,0,0,1,1.38,3.45Z"/><path d="M148.77,16.88v6h-.33v-.35h-5v.35h-.33v-6Zm-.33,5.35v-5h-5v5Zm-2.33-3.51v.94h1.34v1.83h-2.92V19.66h1.26v-.94H144v-.29h1.79v-.89h.32v.89H148v.29Zm1,1.23h-2.29V21.2h2.29Z"/><path d="M153.11,22.31a7,7,0,0,0,1.34.11h1.69a.87.87,0,0,0-.14.33h-1.56c-1.55,0-2.66-.26-3.3-1.59A3.93,3.93,0,0,1,150,22.9l-.27-.23a4.24,4.24,0,0,0,1.36-2.94l.33,0c0,.34-.1.65-.17.95a2.27,2.27,0,0,0,1.5,1.5V19h-1.9v-.32h4.21V19h-2v1.33h2.19v.33h-2.19Zm-2.69-3.58h-.34V17.35h2.82a5.5,5.5,0,0,0-.39-.76l.32-.09a4.45,4.45,0,0,1,.42.8l-.14.05h2.71v1.38h-.34V17.67h-5.06Z"/><path d="M160.51,20.72a6.59,6.59,0,0,0,2.65,1.69,1.61,1.61,0,0,0-.24.28,7,7,0,0,1-2.8-2h0v2.15h-.33V20.72h0a7,7,0,0,1-2.77,2l-.23-.28a6.56,6.56,0,0,0,2.61-1.71h-2.51v-.31h2.91V19.7h-1.56V17.61h-1.34V17.3h1.34v-.77h.33v.77h2.8v-.77h.34v.77h1.36v.31h-1.36V19.7h-1.58v.71h2.95v.31Zm-2-3.11v.72h2.8v-.72Zm0,1.79h2.8v-.78h-2.8Z"/><path d="M165.31,18.61c.18.24.71,1.05.83,1.25l-.22.27c-.11-.23-.39-.72-.61-1.08v3.82H165V19a8.88,8.88,0,0,1-1,2.32,2.11,2.11,0,0,0-.21-.31,8.46,8.46,0,0,0,1.18-2.82h-1.06V17.9H165V16.53h.33V17.9h.89v.32h-.89ZM170,17.9c-.12,3.35-.21,4.42-.48,4.75a.56.56,0,0,1-.45.22c-.2,0-.54,0-.87,0a.68.68,0,0,0-.11-.33c.4,0,.74,0,.87,0a.25.25,0,0,0,.27-.1c.22-.25.33-1.36.43-4.43H167a5.45,5.45,0,0,1-.67,1.2c-.07,0-.2-.15-.29-.2a6.49,6.49,0,0,0,1.1-2.49l.33.07c-.1.38-.21.75-.34,1.1H170Zm-1.32,3.48a3.81,3.81,0,0,0-.16-.53,12.25,12.25,0,0,0-2,.44,1.89,1.89,0,0,0-.1-.32c.1,0,.19-.19.31-.42a11,11,0,0,0,.72-2l.33.09a12.2,12.2,0,0,1-.89,2.19l1.52-.28a9.1,9.1,0,0,0-.42-.95l.26-.08a10.09,10.09,0,0,1,.69,1.72Z"/><path d="M172.79,16.65a15.26,15.26,0,0,1-.71,1.53v4.69h-.33V18.73a6.86,6.86,0,0,1-.77,1,2.37,2.37,0,0,0-.21-.3,8.27,8.27,0,0,0,1.69-2.89Zm4.29,3.76h-2v2.47h-.33V20.41H172.7v-.33h2.08V18.33h-1.26A5.09,5.09,0,0,1,173,19.5a2.43,2.43,0,0,0-.29-.19,5.91,5.91,0,0,0,.88-2.45l.33.06c-.07.37-.17.74-.27,1.08h1.16V16.61h.33V18h1.68v.33h-1.68v1.75h2Z"/><path d="M183.72,18.43c-.11,2.87-.21,3.85-.49,4.16a.65.65,0,0,1-.51.21c-.23,0-.68,0-1.11,0a.68.68,0,0,0-.11-.35c.49,0,1,0,1.11,0s.25,0,.31-.09c.23-.23.35-1.2.45-3.81h-2.62a5.58,5.58,0,0,1-2.59,4.23.75.75,0,0,0-.26-.24,5.32,5.32,0,0,0,2.51-4h-2.3v-.33h2.33c0-.33,0-.65,0-.94v-.76h.34v.76c0,.29,0,.61,0,.94h2.94Zm-4.2-.51a6.43,6.43,0,0,0-.78-1.05l.28-.14a7.37,7.37,0,0,1,.8,1Zm2.57,3.19A7.88,7.88,0,0,0,181,19.7l.27-.15a7,7,0,0,1,1.06,1.38Z"/><path d="M187.31,20.23c-.15-.26-.56-.87-.84-1.27v3.91h-.33V19A8.24,8.24,0,0,1,185,21.39a1.46,1.46,0,0,0-.21-.28,8.56,8.56,0,0,0,1.29-2.87H184.9v-.33h1.24V16.53h.33v1.38h1.08v.33h-1.08v.25c.24.29.92,1.21,1.07,1.43Zm3.3,2.26a.23.23,0,0,0,.16-.06s.07-.11.08-.27,0-.56,0-1.06a.69.69,0,0,0,.29.16c0,.41,0,.94,0,1.09a.53.53,0,0,1-.17.37.53.53,0,0,1-.32.08h-.32a.61.61,0,0,1-.34-.1c-.1-.08-.13-.18-.13-.79V17.25h-1.51v1.9a5.37,5.37,0,0,1-1.13,3.74,1,1,0,0,0-.26-.23A4.89,4.89,0,0,0,188,19.15V16.93h2.18V22a1.12,1.12,0,0,0,.05.45.37.37,0,0,0,.15,0Z"/><path d="M193.35,17.61a2.52,2.52,0,0,1-1.33,2.1,1.2,1.2,0,0,0-.22-.23A2.29,2.29,0,0,0,193,17.61h-1.11V17.3h1.15c0-.24,0-.49.06-.76h.33c0,.27,0,.52-.06.76h1.45s0,.11,0,.15c-.1,1.27-.18,1.74-.35,1.91a.44.44,0,0,1-.36.14,3.86,3.86,0,0,1-.67,0,.8.8,0,0,0-.09-.3,6.23,6.23,0,0,0,.65,0,.25.25,0,0,0,.21-.07,3.71,3.71,0,0,0,.26-1.54Zm2.11,3a5.41,5.41,0,0,0,2.67,1.74,3.15,3.15,0,0,0-.22.29,6,6,0,0,1-2.75-1.92v2.11h-.34V20.69a6.75,6.75,0,0,1-2.77,2,1,1,0,0,0-.23-.28,6.43,6.43,0,0,0,2.66-1.8H192v-.32h2.85v-.78h.34v.78h2.76v.32Zm2.37-1.27h-2.37V17.12h2.37Zm-.33-2h-1.71v1.66h1.71Z"/><path d="M152.54,32h-.88v4.93c0,.3-.08.43-.31.5a7.74,7.74,0,0,1-1.39.06,1.69,1.69,0,0,0-.15-.37c.6,0,1.15,0,1.32,0s.19-.06.19-.21V32h-4.95v-.33h6.17Zm-5.08,3.72v.57h-.32V33.17h2.79v2.55Zm0-2.22v1.89h2.13V33.5Z"/><path d="M156.29,35.26c0,.08.07.23.1.3A12.68,12.68,0,0,0,154,36.73a1.32,1.32,0,0,0-.19-.29.66.66,0,0,0,.36-.54V31.73h.35v4.32Zm2.42-3.83a10.56,10.56,0,0,1-.78,4,12.77,12.77,0,0,1,1.71,1.86l-.28.22a11.78,11.78,0,0,0-1.57-1.79,4.42,4.42,0,0,1-2.19,1.85,2,2,0,0,0-.24-.29c2.32-.9,2.83-2.65,3-5.85Zm-2,2.17a8.46,8.46,0,0,0-1.08-1.69l.29-.14A9.16,9.16,0,0,1,157,33.42Z"/><path d="M162.25,33.61a8.08,8.08,0,0,1-.64,2.42,3.77,3.77,0,0,0,3,1h2a1.41,1.41,0,0,0-.14.31h-1.89a4,4,0,0,1-3.16-1,3.73,3.73,0,0,1-.92,1.12,1.2,1.2,0,0,0-.26-.24,3.47,3.47,0,0,0,1-1.15,4.23,4.23,0,0,1-.64-1.33l.27-.12a3.83,3.83,0,0,0,.51,1.15,7.12,7.12,0,0,0,.51-1.88h-1.14c.31-.51.73-1.29,1.05-1.94h-1.36v-.31h1.87c-.31.61-.72,1.38-1,1.94h.78Zm1.94-1.52h-1.44V31.8h1.44v-.61h.32v.61H166v.93h.54V33H166v1h-1.51v.64h1.68v.29h-1.68v.7h2v.29h-2v.84h-.32v-.84h-1.86V35.6h1.86v-.7h-1.55v-.29h1.55V34h-1.5v-.3h1.5V33h-1.93v-.28h1.93Zm.32,0v.64h1.2v-.64Zm1.2.92h-1.2v.66h1.2Z"/><path d="M173.55,36.85v.33H167.4v-.33h3.38a24,24,0,0,0,1.13-3.54l.38.07a32.81,32.81,0,0,1-1.15,3.47Zm-.27-4h-5.6V32.5h5.6Zm-3.85,3.63a26.41,26.41,0,0,0-.72-3.08l.33-.07a23.62,23.62,0,0,1,.73,3.07Zm1-4.11a7.46,7.46,0,0,0-.34-1.13l.31-.09a9.6,9.6,0,0,1,.37,1.11Z"/><path d="M178.62,33.74a5.44,5.44,0,0,0,2.06,1.45,1.94,1.94,0,0,0-.23.26,5.78,5.78,0,0,1-2.22-1.71h-1.46a5.93,5.93,0,0,1-2.19,1.78,1.5,1.5,0,0,0-.25-.26,5.3,5.3,0,0,0,2-1.52h-2v-.32h2.2a4.84,4.84,0,0,0,.42-.78,8.83,8.83,0,0,0-1.73.14,1.9,1.9,0,0,0-.11-.34,1.12,1.12,0,0,0,.49-.2,8.35,8.35,0,0,0,1.41-1.1l.32.19a11.11,11.11,0,0,1-1.45,1.06l3.15-.15c-.31-.23-.65-.47-1-.66l.24-.19a8.59,8.59,0,0,1,1.81,1.39l-.28.21a4.32,4.32,0,0,0-.48-.47l-2.22.11.17,0a6.56,6.56,0,0,1-.38.75h3.6v.32Zm1.1,2.17a7.6,7.6,0,0,1-4.25,1.61,1,1,0,0,0-.17-.3,7.51,7.51,0,0,0,4.13-1.46Zm-.92-.79a7.49,7.49,0,0,1-2.89,1.24,2.26,2.26,0,0,0-.2-.26,7.6,7.6,0,0,0,2.8-1.12Zm-.64-.82a7.28,7.28,0,0,1-2.13,1,1.73,1.73,0,0,0-.23-.24,6.69,6.69,0,0,0,2.07-.94Z"/><path d="M185.13,33.6c-.39.28-.81.56-1.24.81h3v.3h-3.14c-.1.27-.23.56-.34.8h3.07l0,.17c-.15,1-.29,1.42-.5,1.6a.76.76,0,0,1-.51.15c-.23,0-.73,0-1.26,0a.77.77,0,0,0-.11-.31c.54,0,1.11.06,1.28.06a.57.57,0,0,0,.34-.06c.17-.12.28-.47.4-1.25h-3.18a10.26,10.26,0,0,0,.49-1.14,15.5,15.5,0,0,1-1.94.9,1.15,1.15,0,0,0-.18-.29,15,15,0,0,0,3.31-1.69h-3.12v-.31H184v-.95h-1.88V32H184v-.88h.33V32h1.58v.3h-1.58v.95h.7a10.6,10.6,0,0,0,1.87-1.78l.28.16a11,11,0,0,1-1.65,1.62h2v.31Z"/><path d="M190.51,35.5a7.29,7.29,0,0,1-1.59,1.55,1.73,1.73,0,0,0-.29-.23,6,6,0,0,0,1.55-1.43Zm1.24-.58v2c0,.22-.06.32-.23.38a4.3,4.3,0,0,1-1,.06,1.13,1.13,0,0,0-.13-.33h.91c.12,0,.14,0,.14-.12v-2a14.63,14.63,0,0,0-2.54.25,1.73,1.73,0,0,0-.1-.33,3.29,3.29,0,0,0,1-.39,16.1,16.1,0,0,0,1.52-.87,13.5,13.5,0,0,0-1.94.17c0-.07-.07-.24-.11-.32a1.21,1.21,0,0,0,.5-.29A9.4,9.4,0,0,0,191,32c-.71.07-1.44.12-2.11.16a1.47,1.47,0,0,0-.08-.3,34.84,34.84,0,0,0,4.85-.56l.24.28a21.28,21.28,0,0,1-2.42.37,11.67,11.67,0,0,1-1.63,1.48l1.87-.1a14.54,14.54,0,0,0,1.2-.86l.27.23a21.4,21.4,0,0,1-3.45,2.1l3.66-.25c-.22-.23-.46-.45-.68-.65l.27-.13a10.11,10.11,0,0,1,1.46,1.52l-.27.17a6.12,6.12,0,0,0-.53-.63Zm1,.43a16.5,16.5,0,0,1,1.73,1.52l-.27.2a17.32,17.32,0,0,0-1.71-1.56Z"/><line class="cls-1" x1="48.07" y1="6.49" x2="73.99" y2="20.84"/><polygon class="cls-2" points="78.32 23.23 70.85 22.35 73.67 20.66 73.6 17.37 78.32 23.23"/><line class="cls-1" x1="73.65" y1="35.84" x2="48.07" y2="50.49"/><polygon class="cls-2" points="77.94 33.38 70.48 34.37 73.33 36.02 73.31 39.31 77.94 33.38"/><line class="cls-1" x1="131.4" y1="27.58" x2="208.77" y2="27.58"/><polygon class="cls-2" points="213.71 27.58 206.74 30.43 208.4 27.58 206.74 24.73 213.71 27.58"/></g></g></svg>