<svg xmlns="http://www.w3.org/2000/svg" viewBox="0 0 166.89 67.16"><defs><style>.cls-1,.cls-5{fill:none;stroke-miterlimit:10;}.cls-1{stroke:#231815;}.cls-2{fill:#fff;}.cls-3{fill:#231815;}.cls-4{fill:#58c0c9;}.cls-5{stroke:#b5b5b6;stroke-width:4px;}.cls-6{fill:#b5b5b6;}</style></defs><title>number_of_pair</title><g id="图层_2" data-name="图层 2"><g id="图层_1-2" data-name="图层 1"><line class="cls-1" x1="22.97" y1="0.25" x2="2.13" y2="37.21"/><line class="cls-1" x1="2.13" y1="37.21" x2="36.42" y2="66.78"/><line class="cls-1" x1="2.13" y1="37.21" x2="35.08" y2="32.98"/><path class="cls-2" d="M2.37,39.07A1.88,1.88,0,1,1,4,37,1.87,1.87,0,0,1,2.37,39.07Z"/><path class="cls-3" d="M2.4,39.32A2.13,2.13,0,1,0,0,37.48,2.13,2.13,0,0,0,2.4,39.32Zm-.48-3.73A1.63,1.63,0,1,1,.51,37.42a1.65,1.65,0,0,1,1.41-1.83Z"/><path class="cls-1" d="M166.39,4.08v22.6a2.9,2.9,0,0,1-2.91,2.9h-40.4"/><line class="cls-1" x1="130.95" y1="26.77" x2="142.58" y2="26.77"/><line class="cls-1" x1="130.95" y1="32.21" x2="142.58" y2="32.21"/><line class="cls-1" x1="129.73" y1="26.77" x2="129.73" y2="32.21"/><line class="cls-1" x1="143.8" y1="26.86" x2="143.8" y2="32.3"/><line class="cls-1" x1="136.77" y1="32.21" x2="136.77" y2="62.94"/><line class="cls-1" x1="148.02" y1="26.77" x2="159.64" y2="26.77"/><line class="cls-1" x1="148.02" y1="32.21" x2="159.64" y2="32.21"/><line class="cls-1" x1="146.8" y1="26.86" x2="146.8" y2="32.3"/><line class="cls-1" x1="160.86" y1="26.96" x2="160.86" y2="32.39"/><line class="cls-1" x1="153.83" y1="32.21" x2="153.83" y2="51.94"/><ellipse class="cls-4" cx="136.77" cy="20.28" rx="3.41" ry="3.45"/><path class="cls-2" d="M137.45,22.12h-.7V19.47a2.3,2.3,0,0,1-.89.53v-.63a2.31,2.31,0,0,0,.59-.34,1.34,1.34,0,0,0,.43-.59h.57Z"/><ellipse class="cls-4" cx="153.83" cy="20.28" rx="3.41" ry="3.45"/><path class="cls-2" d="M155,21.47v.65h-2.28a1.91,1.91,0,0,1,.22-.7,4.85,4.85,0,0,1,.73-.88,6.76,6.76,0,0,0,.54-.6.82.82,0,0,0,.13-.43.49.49,0,0,0-.11-.36.41.41,0,0,0-.32-.13.45.45,0,0,0-.33.13.79.79,0,0,0-.14.44l-.64-.07a1.22,1.22,0,0,1,.36-.83,1.14,1.14,0,0,1,.76-.25,1.07,1.07,0,0,1,.79.29,1,1,0,0,1,.29.73,1.27,1.27,0,0,1-.09.47,1.71,1.71,0,0,1-.26.47,5.61,5.61,0,0,1-.42.47,4,4,0,0,0-.39.4,1.13,1.13,0,0,0-.13.2Z"/><line class="cls-5" x1="61.8" y1="33.51" x2="90.73" y2="33.51"/><polygon class="cls-6" points="88.39 41.49 102.21 33.51 88.39 25.53 88.39 41.49"/></g></g></svg>