<svg id="图层_1" data-name="图层 1" xmlns="http://www.w3.org/2000/svg" viewBox="0 0 466.35 192.43"><defs><style>.cls-1{fill:#fff;}.cls-2,.cls-4{fill:none;stroke:#231815;stroke-miterlimit:10;}.cls-3{fill:#231815;}.cls-4{stroke-width:0.25px;}</style></defs><title>analog&amp;amp;digital</title><g id="_2d" data-name="2d"><line class="cls-1" y1="134.05" x2="226.66" y2="134.05"/><line class="cls-2" y1="134.05" x2="217.8" y2="134.05"/><polygon class="cls-3" points="215.82 136.95 226.66 134.04 215.82 131.14 215.82 136.95"/><line class="cls-1" x1="33.15" y1="163.78" x2="33.15"/><line class="cls-2" x1="33.15" y1="163.78" x2="33.15" y2="8.86"/><polygon class="cls-3" points="36.05 10.84 33.15 0 30.24 10.84 36.05 10.84"/></g><path class="cls-2" d="M14.46,71.17C25.21,84.38,40.74,99,56.38,94.39c14.2-4.2,14.85-23.09,35.42-38.25,5-3.68,20.75-14.25,40-11.84,14.84,1.87,20,10,36.72,18.67a105.92,105.92,0,0,0,51,11.84"/><g id="_2d-2" data-name="2d"><line class="cls-1" x1="239.7" y1="134.05" x2="466.35" y2="134.05"/><line class="cls-2" x1="239.7" y1="134.05" x2="457.49" y2="134.05"/><polygon class="cls-3" points="455.51 136.95 466.35 134.04 455.51 131.14 455.51 136.95"/><line class="cls-1" x1="272.84" y1="163.78" x2="272.84"/><line class="cls-2" x1="272.84" y1="163.78" x2="272.84" y2="8.86"/><polygon class="cls-3" points="275.75 10.84 272.84 0 269.94 10.84 275.75 10.84"/></g><line class="cls-4" x1="284.7" y1="134.05" x2="284.7" y2="94.08"/><circle class="cls-3" cx="284.7" cy="94.13" r="0.94"/><line class="cls-4" x1="309.4" y1="134.05" x2="309.4" y2="40.36"/><circle class="cls-3" cx="309.4" cy="40.4" r="0.94"/><line class="cls-4" x1="334.1" y1="134.05" x2="334.1" y2="68.09"/><circle class="cls-3" cx="334.1" cy="68.13" r="0.94"/><line class="cls-4" x1="358.79" y1="134.05" x2="358.79" y2="59.42"/><path class="cls-3" d="M359.73,59.47a.94.94,0,1,0-.94.94A.94.94,0,0,0,359.73,59.47Z"/><line class="cls-4" x1="383.49" y1="134.05" x2="383.49" y2="111.41"/><circle class="cls-3" cx="383.49" cy="111.46" r="0.94"/><line class="cls-4" x1="408.19" y1="134.05" x2="408.19" y2="33.42"/><circle class="cls-3" cx="408.19" cy="33.47" r="0.94"/><line class="cls-4" x1="432.88" y1="134.05" x2="432.88" y2="76.75"/><circle class="cls-3" cx="432.88" cy="76.8" r="0.94"/><path class="cls-3" d="M83.44,187.22a18,18,0,0,0,.1,2.33h-.67a5.21,5.21,0,0,1-.07-.9h0a2,2,0,0,1-2,1c-1,0-2-.46-2-1.64,0-1.69,2-1.86,3.07-1.86h.84v-.33c0-1-.67-1.35-1.56-1.35a2.5,2.5,0,0,0-1.69.63l-.42-.5a3.24,3.24,0,0,1,2.11-.77c1.34,0,2.21.59,2.21,2ZM82,186.77c-1.2,0-2.4.3-2.4,1.24a1.14,1.14,0,0,0,1.26,1,1.73,1.73,0,0,0,1.93-1.91v-.37Z"/><path class="cls-3" d="M85.36,185.57c0-.41-.06-1.27-.06-1.56H86a8.41,8.41,0,0,0,0,1h0a2.08,2.08,0,0,1,1.9-1.11c1.72,0,2.11,1.17,2.11,2.38v3.3h-.72v-3.26c0-.9-.25-1.78-1.39-1.78s-1.92.75-1.92,2.27v2.77h-.72Z"/><path class="cls-3" d="M96.34,187.22a18,18,0,0,0,.1,2.33h-.67a5.21,5.21,0,0,1-.07-.9h0a2,2,0,0,1-2,1c-1,0-2-.46-2-1.64,0-1.69,2-1.86,3.07-1.86h.84v-.33c0-1-.67-1.35-1.56-1.35a2.5,2.5,0,0,0-1.69.63l-.42-.5a3.24,3.24,0,0,1,2.11-.77c1.34,0,2.21.59,2.21,2Zm-1.44-.45c-1.2,0-2.4.3-2.4,1.24a1.14,1.14,0,0,0,1.26,1,1.73,1.73,0,0,0,1.93-1.91v-.37Z"/><path class="cls-3" d="M98.38,180.48h.72v9.07h-.72Z"/><path class="cls-3" d="M103.74,183.87a2.91,2.91,0,1,1-2.91,2.91A2.8,2.8,0,0,1,103.74,183.87Zm0,5.18a2.27,2.27,0,1,0-2.19-2.27A2.14,2.14,0,0,0,103.74,189.05Z"/><path class="cls-3" d="M113.83,189.19c0,2.76-1.82,3.24-3,3.24a3.48,3.48,0,0,1-2.75-1.17l.57-.52a2.62,2.62,0,0,0,2.18,1,2.18,2.18,0,0,0,2.23-2.54v-.77h0a2.39,2.39,0,0,1-2.1,1.08,2.84,2.84,0,1,1,0-5.68,2.38,2.38,0,0,1,2.1,1.07h0V184h.72Zm-2.89-4.68a2.2,2.2,0,1,0,2.19,2.2A2.2,2.2,0,0,0,110.94,184.51Z"/><path class="cls-3" d="M118.73,188.13a1.8,1.8,0,0,0,1.61.92,1.17,1.17,0,0,0,1.27-1c0-1.53-3.29-.46-3.29-2.57a1.71,1.71,0,0,1,1.9-1.59,2,2,0,0,1,2,1l-.65.38a1.35,1.35,0,0,0-1.3-.78c-.52,0-1.18.31-1.18.89,0,1.5,3.29.34,3.29,2.58a1.78,1.78,0,0,1-2,1.71,2.45,2.45,0,0,1-2.23-1.12Z"/><path class="cls-3" d="M124.31,181.27a.54.54,0,1,1-.54.54A.54.54,0,0,1,124.31,181.27ZM124,184h.72v5.54H124Z"/><path class="cls-3" d="M132.27,189.19c0,2.76-1.82,3.24-3,3.24a3.46,3.46,0,0,1-2.74-1.17l.56-.52a2.62,2.62,0,0,0,2.18,1,2.18,2.18,0,0,0,2.23-2.54v-.77h0a2.39,2.39,0,0,1-2.1,1.08,2.84,2.84,0,1,1,0-5.68,2.38,2.38,0,0,1,2.1,1.07h0V184h.72Zm-2.89-4.68a2.2,2.2,0,1,0,2.2,2.2A2.2,2.2,0,0,0,129.38,184.51Z"/><path class="cls-3" d="M134,185.57c0-.41-.06-1.27-.06-1.56h.72a8.41,8.41,0,0,0,.05,1h0a2.08,2.08,0,0,1,1.9-1.11c1.73,0,2.11,1.17,2.11,2.38v3.3h-.72v-3.26c0-.9-.25-1.78-1.39-1.78s-1.92.75-1.92,2.27v2.77H134Z"/><path class="cls-3" d="M145,187.22a16.09,16.09,0,0,0,.11,2.33h-.67a5.19,5.19,0,0,1-.08-.9h0a2,2,0,0,1-1.94,1c-.95,0-2-.46-2-1.64,0-1.69,2-1.86,3.07-1.86h.84v-.33c0-1-.67-1.35-1.56-1.35a2.5,2.5,0,0,0-1.69.63l-.42-.5a3.24,3.24,0,0,1,2.11-.77c1.34,0,2.21.59,2.21,2Zm-1.44-.45c-1.2,0-2.4.3-2.4,1.24a1.14,1.14,0,0,0,1.26,1,1.73,1.73,0,0,0,1.93-1.91v-.37Z"/><path class="cls-3" d="M147.06,180.48h.72v9.07h-.72Z"/><path class="cls-3" d="M325.17,188.58h0a2.55,2.55,0,0,1-2.22,1.11,2.91,2.91,0,1,1,0-5.82,2.55,2.55,0,0,1,2.22,1.11h0v-4.5h.72v9.07h-.72Zm-2.24-4.07a2.27,2.27,0,0,0,0,4.54,2.27,2.27,0,1,0,0-4.54Z"/><path class="cls-3" d="M328.14,181.27a.54.54,0,1,1-.54.54A.54.54,0,0,1,328.14,181.27Zm-.36,2.74h.72v5.54h-.72Z"/><path class="cls-3" d="M336.1,189.19c0,2.76-1.82,3.24-3,3.24a3.5,3.5,0,0,1-2.75-1.17l.57-.52a2.62,2.62,0,0,0,2.18,1,2.18,2.18,0,0,0,2.23-2.54v-.77h0a2.39,2.39,0,0,1-2.1,1.08,2.84,2.84,0,1,1,0-5.68,2.38,2.38,0,0,1,2.1,1.07h0V184h.72Zm-2.89-4.68a2.2,2.2,0,1,0,2.2,2.2A2.2,2.2,0,0,0,333.21,184.51Z"/><path class="cls-3" d="M338.35,181.27a.54.54,0,1,1-.54.54A.54.54,0,0,1,338.35,181.27ZM338,184h.72v5.54H338Z"/><path class="cls-3" d="M343.46,184.66h-1.58v3.61a.71.71,0,0,0,.76.78,2.1,2.1,0,0,0,.82-.2l.06.65a3,3,0,0,1-.94.19,1.28,1.28,0,0,1-1.42-1.42v-3.61H340V184h1.2v-1.6h.72V184h1.58Z"/><path class="cls-3" d="M349.05,187.22a16.09,16.09,0,0,0,.11,2.33h-.67a5.21,5.21,0,0,1-.07-.9h0a2,2,0,0,1-1.94,1c-.95,0-2-.46-2-1.64,0-1.69,2-1.86,3.07-1.86h.84v-.33c0-1-.67-1.35-1.56-1.35a2.52,2.52,0,0,0-1.69.63l-.42-.5a3.24,3.24,0,0,1,2.11-.77c1.35,0,2.21.59,2.21,2Zm-1.44-.45c-1.2,0-2.4.3-2.4,1.24a1.14,1.14,0,0,0,1.26,1,1.73,1.73,0,0,0,1.93-1.91v-.37Z"/><path class="cls-3" d="M351.09,180.48h.72v9.07h-.72Z"/><path class="cls-3" d="M357,188.13a1.8,1.8,0,0,0,1.61.92,1.16,1.16,0,0,0,1.27-1c0-1.53-3.28-.46-3.28-2.57a1.7,1.7,0,0,1,1.89-1.59,2,2,0,0,1,2,1l-.65.38a1.37,1.37,0,0,0-1.31-.78c-.51,0-1.17.31-1.17.89,0,1.5,3.28.34,3.28,2.58a1.78,1.78,0,0,1-2,1.71,2.44,2.44,0,0,1-2.23-1.12Z"/><path class="cls-3" d="M362.56,181.27a.54.54,0,1,1-.54.54A.54.54,0,0,1,362.56,181.27ZM362.2,184h.72v5.54h-.72Z"/><path class="cls-3" d="M370.53,189.19c0,2.76-1.82,3.24-2.95,3.24a3.48,3.48,0,0,1-2.75-1.17l.57-.52a2.62,2.62,0,0,0,2.18,1,2.18,2.18,0,0,0,2.23-2.54v-.77h0a2.4,2.4,0,0,1-2.1,1.08,2.84,2.84,0,1,1,0-5.68,2.4,2.4,0,0,1,2.1,1.07h0V184h.72Zm-2.89-4.68a2.2,2.2,0,1,0,2.19,2.2A2.21,2.21,0,0,0,367.64,184.51Z"/><path class="cls-3" d="M372.3,185.57c0-.41-.06-1.27-.06-1.56H373c0,.41,0,.86,0,1h0a2.07,2.07,0,0,1,1.89-1.11c1.73,0,2.12,1.17,2.12,2.38v3.3h-.72v-3.26c0-.9-.26-1.78-1.4-1.78s-1.92.75-1.92,2.27v2.77h-.71Z"/><path class="cls-3" d="M383.27,187.22a17.68,17.68,0,0,0,.11,2.33h-.67a5.21,5.21,0,0,1-.07-.9h0a2,2,0,0,1-1.94,1c-.95,0-1.95-.46-1.95-1.64,0-1.69,2-1.86,3.07-1.86h.84v-.33c0-1-.68-1.35-1.56-1.35a2.5,2.5,0,0,0-1.69.63l-.42-.5a3.23,3.23,0,0,1,2.11-.77c1.34,0,2.2.59,2.2,2Zm-1.44-.45c-1.19,0-2.4.3-2.4,1.24a1.15,1.15,0,0,0,1.26,1,1.73,1.73,0,0,0,1.94-1.91v-.37Z"/><path class="cls-3" d="M385.32,180.48H386v9.07h-.72Z"/></svg>