<?xml version="1.0" encoding="utf-8"?>
<!-- Generator: Adobe Illustrator 23.0.0, SVG Export Plug-In . SVG Version: 6.00 Build 0)  -->
<svg version="1.1" id="图层_1" xmlns="http://www.w3.org/2000/svg" xmlns:xlink="http://www.w3.org/1999/xlink" x="0px" y="0px"
	 viewBox="0 0 272.8 226.9" style="enable-background:new 0 0 272.8 226.9;" xml:space="preserve">
<style type="text/css">
	.st0{fill:none;}
	.st1{fill:none;stroke:#231815;stroke-width:0.5;stroke-miterlimit:10;}
	.st2{fill:#231815;}
	.st3{opacity:0.3;fill:#E60012;enable-background:new    ;}
	.st4{opacity:0.3;fill:#009944;enable-background:new    ;}
	.st5{opacity:0.3;fill:#F39800;enable-background:new    ;}
	.st6{opacity:0.3;fill:#2EA7E0;enable-background:new    ;}
	.st7{fill:none;stroke:#00A0E9;stroke-miterlimit:10;}
</style>
<title>diode_i-v</title>
<g>
	<g id="coordinate_system">
		<g id="_2d">
			<line class="st0" x1="0" y1="114.3" x2="268.6" y2="114.3"/>
			<line class="st1" x1="0" y1="114.3" x2="261.9" y2="114.3"/>
			<polygon class="st2" points="260.4,116.5 268.6,114.3 260.4,112.1 			"/>
			<line class="st0" x1="188.2" y1="200" x2="188.2" y2="0"/>
			<line class="st1" x1="188.2" y1="200" x2="188.2" y2="6.6"/>
			<polygon class="st2" points="190.3,8.1 188.2,0 186,8.1 			"/>
		</g>
		<rect x="13.6" y="21" class="st3" width="27" height="190.7"/>
		<rect x="40.6" y="21" class="st4" width="147.5" height="190.7"/>
		<rect x="188.2" y="21" class="st5" width="26.6" height="190.7"/>
		<rect x="214.7" y="21" class="st6" width="26.6" height="190.7"/>
		<path class="st7" d="M31.3,201.6c0-24.8,7.8-77.5,9.6-82.7c0.9-2.7,1.1-2.6,6-2.8c4.3-0.2,137.4,0,139.8-0.7s1.8-2.3,4.1-2.6
			s11.8,0.2,22.5-0.5c9.7-0.6,18.5-83,18.5-83"/>
		<path d="M22.3,221c-0.4,1.5-1.2,2.8-2.3,3.8c1,0.8,2.1,1.3,3.3,1.5c-0.1,0.1-0.2,0.3-0.3,0.4c-1.2-0.3-2.4-0.8-3.4-1.6
			c-1,0.8-2.1,1.3-3.3,1.7c-0.1-0.2-0.2-0.3-0.3-0.4c1.1-0.3,2.2-0.8,3.1-1.6c-1-0.9-1.7-2.1-2.1-3.4h-0.8c0.1,1.9-0.3,3.8-1.3,5.5
			c-0.1-0.1-0.3-0.2-0.4-0.3c0.9-1.6,1.3-3.5,1.2-5.3v-2.6c2.1-0.1,4.1-0.3,6.2-0.8l0.4,0.4c-2,0.4-4,0.7-6.1,0.8v1.9h5.6h0.1
			L22.3,221z M17.6,221.3c0.4,1.2,1.1,2.3,2,3.1c0.9-0.8,1.7-1.9,2.1-3.1H17.6z"/>
		<path d="M33,226.1c0,0.4-0.1,0.6-0.4,0.7c-0.6,0.1-1.2,0.1-1.9,0.1c0-0.2-0.1-0.4-0.2-0.5c0.8,0,1.5,0,1.7,0s0.3-0.1,0.3-0.3V220
			h-7v6.8H25v-7.3h2.7c0.3-0.6,0.5-1.2,0.7-1.8l0.6,0.1c-0.2,0.5-0.5,1.2-0.8,1.7H33V226.1z M27.5,224.8v0.7H27v-4h3.9v3.2
			L27.5,224.8z M27.5,222v2.3h3V222L27.5,222z"/>
		<path d="M39.2,225.7h2.7v-2.7h0.5v3.8h-0.5v-0.6h-6.3v-3.1H36v2.7h2.7v-3.6h-4v-0.5h4v-1.8h-3.2v-0.5h3.3v-1.6h0.5v1.6h3.3v0.5
			h-3.3v1.8h4v0.5h-4V225.7z"/>
		<path d="M50.9,223.5h2.3v0.5h-2.3v2.2c0,0.4-0.1,0.5-0.3,0.6c-0.5,0.1-1,0.1-1.5,0.1c-0.1-0.2-0.1-0.3-0.2-0.4c0.7,0,1.2,0,1.4,0
			s0.2-0.1,0.2-0.2V224h-0.1c-1.6,1.2-3.5,2-5.5,2.4c-0.1-0.1-0.2-0.3-0.3-0.4c1.8-0.3,3.6-1,5.1-2h-4.1c0.2-0.5,0.3-1.2,0.5-1.7
			l0.5,0.1c-0.1,0.4-0.2,0.9-0.3,1.3h4.2V222h-5.1v-0.4h7.6v0.4h-2L50.9,223.5z M53.1,218.8v1.5h-0.5v-1h-7.4v1h-0.5v-1.5h4.1
			c-0.2-0.3-0.4-0.6-0.7-0.9l0.4-0.2c0.3,0.3,0.5,0.6,0.8,1l-0.1,0.1L53.1,218.8z M48.2,220c-0.8,0.6-1.7,1.1-2.7,1.5l-0.3-0.4
			c0.9-0.3,1.8-0.8,2.6-1.4L48.2,220z M50,219.8c0.9,0.4,1.8,0.8,2.6,1.3l-0.3,0.4c-0.8-0.6-1.7-1-2.6-1.4L50,219.8z"/>
		<path d="M63.4,226.1v0.5H55v-8.1h8.2v0.5h-7.6v7.2L63.4,226.1z M61.7,225.2c-0.7-0.9-1.4-1.7-2.2-2.4c-0.8,0.9-1.8,1.7-2.8,2.4
			c-0.1-0.1-0.3-0.3-0.4-0.4c1.1-0.7,2-1.5,2.9-2.4c-0.8-0.8-1.8-1.6-2.6-2.4l0.4-0.3c0.8,0.7,1.7,1.5,2.5,2.3
			c0.7-0.8,1.4-1.7,1.9-2.7l0.5,0.2c-0.6,1-1.2,1.9-2,2.8c0.8,0.8,1.6,1.6,2.3,2.5L61.7,225.2z"/>
		<path d="M104.8,221c-0.4,1.5-1.2,2.8-2.3,3.8c1,0.7,2.1,1.3,3.3,1.5c-0.1,0.1-0.2,0.3-0.3,0.4c-1.2-0.3-2.4-0.8-3.3-1.6
			c-1,0.8-2.1,1.3-3.3,1.7c-0.1-0.2-0.2-0.3-0.3-0.4c1.1-0.3,2.2-0.8,3.2-1.6c-1-0.9-1.7-2.1-2.1-3.4h-0.8c0.1,1.9-0.3,3.8-1.3,5.5
			c-0.1-0.1-0.3-0.2-0.4-0.3c0.9-1.6,1.3-3.5,1.2-5.3v-2.6c2.1-0.1,4.1-0.3,6.2-0.8l0.4,0.4c-2,0.4-4,0.7-6.1,0.8v1.9h5.6h0.1
			L104.8,221z M100.1,221.3c0.4,1.2,1.1,2.3,2,3.1c0.9-0.8,1.7-1.9,2.1-3.1H100.1z"/>
		<path d="M115.5,226.1c0,0.4-0.1,0.6-0.4,0.7c-0.6,0.1-1.2,0.1-1.8,0.1c0-0.2-0.1-0.4-0.2-0.5c0.8,0,1.5,0,1.7,0s0.3-0.1,0.3-0.3
			V220h-7v6.8h-0.5v-7.3h2.7c0.3-0.6,0.5-1.2,0.7-1.8l0.6,0.1c-0.2,0.5-0.5,1.2-0.8,1.7h4.7L115.5,226.1z M110,224.8v0.7h-0.4v-4
			h3.9v3.2L110,224.8z M110,222v2.3h3V222L110,222z"/>
		<path d="M118.4,226v0.6H118v-3.8c-0.2,0.2-0.4,0.5-0.6,0.7c-0.1-0.1-0.2-0.2-0.4-0.3c0.7-0.7,1.2-1.5,1.6-2.4l0.4,0.1
			c-0.1,0.3-0.3,0.6-0.5,1h1.7c-0.1-0.3-0.3-0.6-0.5-0.9l0.4-0.1c0.2,0.3,0.4,0.6,0.6,1l-0.2,0.1h1.6v0.4h-1.6v0.8h1.5v0.4h-1.4v0.8
			h1.4v0.4h-1.4v0.8h1.7v0.4H118.4z M125.4,221.6c-0.3,1.1-0.8,2.2-1.5,3.2c0.3,0.9,0.7,1.4,1.2,1.4c0.3,0,0.4-0.5,0.5-1.7
			c0.1,0.1,0.3,0.2,0.4,0.2c-0.1,1.5-0.3,1.9-0.9,1.9s-1.2-0.5-1.5-1.4c-0.5,0.6-1,1.1-1.6,1.6c-0.1-0.1-0.2-0.2-0.4-0.3
			c0.7-0.5,1.3-1.1,1.8-1.8c-0.4-1.3-0.6-2.6-0.7-4h-5.6v-0.4h2.4v-1h-2v-0.4h2v-1h0.5v1h2v0.4h-2v1h2.7c0-0.8-0.1-1.6-0.1-2.5h0.5
			c0,0.9,0,1.7,0.1,2.5h2.8v0.4h-2.8c0.1,1.2,0.2,2.4,0.5,3.5c0.5-0.9,0.9-1.8,1.2-2.8L125.4,221.6z M120.1,222.4h-1.7v0.8h1.7
			V222.4z M120.1,223.5h-1.7v0.8h1.7V223.5z M120.1,224.8h-1.7v0.8h1.7V224.8z M125.4,219.8c-0.5-0.6-1-1-1.6-1.5l0.3-0.2
			c0.6,0.4,1.1,0.9,1.6,1.4L125.4,219.8z"/>
		<path d="M135.9,225.9v0.5h-8.9v-0.5h1.4v-5.8h0.5v5.8h2.6v-8.1h0.5v3.4h3.4v0.5h-3.4v4.1H135.9z"/>
		<path d="M146,226.1v0.5h-8.4v-8.1h8.1v0.5h-7.7v7.2L146,226.1z M144.3,225.2c-0.7-0.9-1.4-1.7-2.2-2.4c-0.8,0.9-1.8,1.7-2.8,2.4
			c-0.1-0.1-0.3-0.3-0.4-0.4c1.1-0.7,2-1.5,2.9-2.4c-0.9-0.8-1.8-1.6-2.6-2.4l0.4-0.3c0.8,0.7,1.7,1.5,2.6,2.3
			c0.7-0.8,1.4-1.7,1.9-2.7l0.4,0.2c-0.6,1-1.2,1.9-2,2.8c0.8,0.8,1.6,1.6,2.3,2.5L144.3,225.2z"/>
		<path d="M198.1,225.8c0.4,0,0.5-0.3,0.5-1.6c0.1,0.1,0.3,0.2,0.4,0.2c-0.1,1.4-0.2,1.8-1,1.8h-1.7c-0.8,0-1-0.2-1-1v-6.6h-2.6
			c-0.2,0.7-0.5,1.3-0.8,1.9h2.3h0.1l0.3,0.1c-0.3,2.6-2,4.7-4.4,5.7c-0.1-0.1-0.2-0.3-0.3-0.4c1.1-0.4,2.1-1.1,2.8-2.1
			c-0.5-0.6-1-1.1-1.5-1.6l0.3-0.3c0.5,0.4,1,0.9,1.5,1.5c0.5-0.8,0.8-1.6,1-2.5h-2.3c-0.4,0.7-0.9,1.3-1.4,1.9
			c-0.1-0.1-0.2-0.2-0.3-0.3c1.1-1.1,1.9-2.5,2.3-3.9h-2.1v-0.5h8.8v0.5h-3.1v3.4c0.9-0.5,1.7-1.2,2.4-1.9l0.4,0.4
			c-0.9,0.7-1.8,1.4-2.7,2v2.7c0,0.4,0.1,0.5,0.6,0.5L198.1,225.8z"/>
		<path d="M209,225.9v0.5h-8.4v-8.1h8.1v0.5h-7.7v7.2L209,225.9z M207.3,225c-0.7-0.9-1.4-1.7-2.2-2.4c-0.8,0.9-1.8,1.7-2.8,2.4
			c-0.1-0.1-0.3-0.3-0.4-0.4c1.1-0.7,2-1.5,2.9-2.4c-0.9-0.8-1.8-1.6-2.6-2.4l0.4-0.3c0.8,0.7,1.7,1.5,2.5,2.3
			c0.7-0.8,1.4-1.7,1.9-2.7l0.4,0.2c-0.6,1-1.2,1.9-2,2.8c0.8,0.8,1.6,1.6,2.3,2.5L207.3,225z"/>
		<path d="M227.3,225.9v0.5h-8.9v-0.5h1.4v-4.8h0.5v4.8h2.5v-6.8h-4v-0.5h8.1v0.5h-3.6v2.9h3.3v0.5h-3.3v3.4L227.3,225.9z"/>
		<path d="M236.8,226.1c0,0.4-0.1,0.6-0.4,0.7c-0.6,0.1-1.2,0.1-1.9,0.1c0-0.2-0.1-0.4-0.2-0.5c0.8,0,1.5,0,1.7,0s0.3-0.1,0.3-0.3
			V220h-7v6.8h-0.5v-7.3h2.7c0.3-0.6,0.5-1.2,0.7-1.8l0.6,0.1c-0.2,0.5-0.5,1.2-0.8,1.7h4.7L236.8,226.1z M231.3,224.8v0.7h-0.4
			v-3.9h3.9v3.2H231.3z M231.3,222v2.3h3V222L231.3,222z"/>
		<path d="M247.3,223.8H245v2.4c0,0.4-0.1,0.5-0.4,0.6c-0.6,0.1-1.2,0.1-1.8,0.1c0-0.2-0.1-0.3-0.2-0.4c0.8,0,1.5,0,1.6,0
			s0.3-0.1,0.3-0.2v-2.4h-6v-0.4h6v-0.9h0.5v0.9h2.3L247.3,223.8z M241.2,222.2c-1.5,0-1.9-0.2-1.9-1v-2.9h6.8v2.2h-6.3v0.8
			c0,0.4,0.2,0.5,1.3,0.5h4.3c0.8,0,1-0.2,1-1c0.1,0.1,0.3,0.1,0.5,0.2c-0.1,1-0.3,1.3-1.5,1.3L241.2,222.2z M239.8,218.7v1.3h5.8
			v-1.3L239.8,218.7z M240.4,223.9c0.6,0.5,1.2,1.2,1.6,1.9l-0.4,0.3c-0.4-0.7-1-1.3-1.6-1.9L240.4,223.9z"/>
		<path d="M250.3,225.1c0.2,0.1,0.5,0.3,0.9,0.6c0.8,0.4,1.7,0.6,2.6,0.5c1.2,0,2.6-0.1,3.7-0.2c-0.1,0.2-0.1,0.3-0.1,0.5
			c-0.6,0-2.4,0.1-3.5,0.1c-1,0.1-1.9-0.1-2.8-0.6c-0.4-0.2-0.8-0.6-1-0.6s-0.9,0.6-1.4,1.3l-0.3-0.4c0.4-0.5,0.9-1,1.5-1.3V222
			h-1.5v-0.5h2L250.3,225.1z M250.3,220.2c-0.5-0.6-1.1-1.2-1.7-1.7l0.4-0.3c0.6,0.5,1.2,1.1,1.7,1.7L250.3,220.2z M252.8,219
			c0.5,0.2,1,0.4,1.5,0.6c0.6-0.3,1.2-0.6,1.8-1h-4.6v-0.4h5.1h0.1l0.3,0.2c-0.7,0.6-1.4,1.1-2.2,1.4c0.4,0.2,0.7,0.3,0.9,0.5h1.3
			v4.6c0,0.3-0.1,0.4-0.3,0.5c-0.4,0.1-0.9,0.1-1.4,0.1c0-0.1-0.1-0.3-0.1-0.4c0.6,0,1,0,1.2,0s0.2,0,0.2-0.2v-1.2h-2.1v1.7H254
			v-1.7h-2v1.8h-0.5v-5.1h3.2c-0.7-0.4-1.5-0.7-2.3-1L252.8,219z M252,220.7v1.1h2v-1.1H252z M254,223.3v-1.1h-2v1.1L254,223.3z
			 M254.4,220.7v1.1h2.1v-1.1H254.4z M256.5,223.3v-1.1h-2.1v1.1L256.5,223.3z"/>
		<path d="M267.3,226.1v0.5h-8.4v-8.1h8.1v0.5h-7.7v7.2L267.3,226.1z M265.6,225.2c-0.7-0.9-1.4-1.7-2.2-2.4
			c-0.8,0.9-1.8,1.7-2.8,2.4c-0.1-0.1-0.3-0.3-0.4-0.4c1.1-0.7,2-1.5,2.9-2.4c-0.9-0.8-1.8-1.6-2.6-2.4l0.4-0.3
			c0.8,0.7,1.7,1.5,2.5,2.3c0.7-0.8,1.4-1.7,1.9-2.7l0.5,0.2c-0.6,1-1.2,1.9-2,2.8c0.8,0.8,1.6,1.6,2.3,2.5L265.6,225.2z"/>
		<path d="M206.9,119.3c1.4,0,1.6,1.5,1.6,2.6s-0.2,2.6-1.6,2.6s-1.6-1.5-1.6-2.6S205.5,119.3,206.9,119.3z M206.9,124
			c1,0,1.2-1.4,1.2-2.2s-0.1-2.2-1.2-2.2s-1.2,1.4-1.2,2.2S205.9,124,206.9,124L206.9,124z"/>
		<path d="M209.7,123.7c0.2,0,0.3,0.1,0.3,0.3c0,0,0,0,0,0c0,0.2-0.2,0.3-0.3,0.3c-0.2,0-0.3-0.1-0.3-0.3c0,0,0,0,0,0
			C209.3,123.9,209.5,123.7,209.7,123.7C209.6,123.7,209.7,123.7,209.7,123.7z"/>
		<path d="M213.7,119.8h-2v1.6c0.2-0.1,0.5-0.1,0.7-0.1c0.9,0.1,1.6,0.8,1.5,1.7c-0.1,0.9-0.8,1.6-1.7,1.5c-0.6,0-1.1-0.4-1.3-0.8
			l0.4-0.2c0.2,0.4,0.6,0.7,1.1,0.7c0.6,0,1.1-0.5,1.1-1.2c0-0.7-0.5-1.3-1.2-1.3c0,0,0,0,0,0c-0.4,0-0.7,0.1-1,0.3v-2.5h2.4V119.8z
			"/>
		<path d="M215,119.4h0.5l1.6,4.3l1.6-4.3h0.5l-1.9,5h-0.5L215,119.4z"/>
		<path d="M195.8,0.3c0.2,0,0.3,0.1,0.4,0.3c0,0.2-0.1,0.3-0.3,0.4c0,0-0.1,0-0.1,0c-0.2,0-0.3-0.2-0.3-0.4
			C195.5,0.4,195.6,0.3,195.8,0.3z M195.5,1.9h0.5v3.2h-0.4L195.5,1.9z"/>
		<path d="M200.2,0.2c-0.6,0.8-0.9,1.9-0.9,2.9c0,1,0.3,2,0.9,2.9l-0.3,0.2c-0.6-0.9-1-2-1-3.1c0-1.1,0.4-2.2,1-3.1L200.2,0.2z"/>
		<path d="M200.8,2.8c0-0.2,0-0.7,0-0.9h0.4c0,0.2,0,0.4,0,0.6l0,0c0.2-0.4,0.6-0.7,1.1-0.7c0.5,0,0.9,0.3,1,0.7
			c0.2-0.4,0.6-0.7,1.1-0.7c1,0,1.2,0.7,1.2,1.4v1.9h-0.4V3.2c0-0.5-0.1-1-0.8-1c-0.6,0-1,0.4-1,1c0,0,0,0.1,0,0.1v1.8H203V3.2
			c0-0.6-0.2-1-0.7-1c-0.6,0-1.1,0.4-1.1,1.3v1.6h-0.4L200.8,2.8z"/>
		<path d="M208.4,0.2h0.5l2.1,5h-0.5l-0.5-1.3h-2.6l-0.6,1.3h-0.5L208.4,0.2z M208.6,0.7l-1.1,2.7h2.3L208.6,0.7z"/>
		<path d="M211.1,6c0.6-0.8,0.9-1.9,0.9-2.9c0-1-0.3-2-0.9-2.9l0.3-0.2c0.6,0.9,1,2,1,3.1c0,1.1-0.4,2.2-1,3.1L211.1,6z"/>
		<path d="M196.8,194.6c0.2,0,0.3,0.1,0.3,0.3c0,0.2-0.1,0.3-0.3,0.3c-0.2,0-0.3-0.1-0.3-0.3c0,0,0,0,0,0
			C196.5,194.7,196.6,194.6,196.8,194.6z M196.6,196.2h0.4v3.2h-0.4L196.6,196.2z"/>
		<path d="M201.2,194.5c-0.6,0.8-0.9,1.8-0.9,2.9c0,1,0.3,2,0.9,2.9l-0.3,0.2c-1.3-1.9-1.3-4.4,0-6.2L201.2,194.5z"/>
		<path d="M204.6,198.5c0,0.2,0,0.7,0,0.9h-0.4c0-0.2,0-0.5,0-0.6l0,0c-0.2,0.4-0.6,0.7-1.1,0.6c-1,0-1.2-0.7-1.2-1.4v-1.9h0.4v1.9
			c0,0.5,0.1,1,0.8,1s1.1-0.4,1.1-1.3v-1.6h0.4L204.6,198.5z"/>
		<path d="M207.4,194.4h0.5l2.1,5h-0.5l-0.5-1.3h-2.6l-0.6,1.3h-0.5L207.4,194.4z M207.6,194.9l-1.2,2.7h2.3L207.6,194.9z"/>
		<path d="M210.1,200.3c0.6-0.8,0.9-1.9,0.9-2.9c0-1-0.3-2-0.9-2.9l0.3-0.2c1.3,1.9,1.3,4.4,0,6.2L210.1,200.3z"/>
		<path d="M253.4,118.9h0.5l1.6,4.3l1.6-4.3h0.5l-1.9,5h-0.5L253.4,118.9z"/>
		<path d="M261.2,119c-0.6,0.8-0.9,1.9-0.9,2.9c0,1,0.3,2,0.9,2.9l-0.3,0.2c-0.6-0.9-1-2-1-3.1c0-1.1,0.4-2.2,1-3.1L261.2,119z"/>
		<path d="M261.7,118.9h0.5l1.6,4.3l1.6-4.3h0.5l-1.9,5h-0.5L261.7,118.9z"/>
		<path d="M266.5,124.7c0.6-0.8,0.9-1.8,0.9-2.9c0-1-0.3-2-0.9-2.9l0.3-0.2c0.6,0.9,1,2,1,3.1c0,1.1-0.4,2.2-1,3.1L266.5,124.7z"/>
	</g>
</g>
</svg>
