<svg xmlns="http://www.w3.org/2000/svg" viewBox="0 0 219.33 139.4"><defs><style>.cls-1,.cls-4,.cls-6{fill:none;stroke-miterlimit:10;}.cls-1,.cls-6{stroke:#898989;}.cls-2{fill:#898989;}.cls-3{fill:#00a0e9;}.cls-4{stroke:#e60012;}.cls-5{fill:#231815;}.cls-6{stroke-width:2px;}</style></defs><title>hole_mov</title><g id="图层_2" data-name="图层 2"><g id="图层_1-2" data-name="图层 1"><line class="cls-1" x1="20.64" y1="19.5" x2="15.02" y2="19.5"/><polygon class="cls-2" points="12.2 19.5 16.18 17.88 15.24 19.5 16.18 21.13 12.2 19.5"/><circle class="cls-3" cx="28.09" cy="19.5" r="4.25"/><circle class="cls-3" cx="51.43" cy="19.5" r="4.25"/><circle class="cls-3" cx="74.77" cy="19.5" r="4.25"/><circle class="cls-3" cx="98.1" cy="19.5" r="4.25"/><circle class="cls-4" cx="4.75" cy="19.5" r="4.25"/><line class="cls-1" x1="43.98" y1="48.29" x2="38.36" y2="48.29"/><polygon class="cls-2" points="35.54 48.29 39.52 46.66 38.57 48.29 39.52 49.91 35.54 48.29"/><circle class="cls-3" cx="4.75" cy="48.29" r="4.25"/><circle class="cls-3" cx="51.43" cy="48.29" r="4.25"/><circle class="cls-3" cx="74.77" cy="48.29" r="4.25"/><circle class="cls-3" cx="98.1" cy="48.29" r="4.25"/><circle class="cls-4" cx="28.09" cy="48.29" r="4.25"/><line class="cls-1" x1="67.32" y1="77.08" x2="61.7" y2="77.08"/><polygon class="cls-2" points="58.88 77.08 62.86 75.45 61.91 77.08 62.86 78.7 58.88 77.08"/><circle class="cls-3" cx="4.75" cy="77.08" r="4.25"/><circle class="cls-3" cx="28.09" cy="77.08" r="4.25"/><circle class="cls-3" cx="74.77" cy="77.08" r="4.25"/><circle class="cls-3" cx="98.1" cy="77.08" r="4.25"/><circle class="cls-4" cx="51.43" cy="77.08" r="4.25"/><line class="cls-1" x1="90.65" y1="105.86" x2="85.04" y2="105.86"/><polygon class="cls-2" points="82.21 105.86 86.19 104.23 85.25 105.86 86.19 107.49 82.21 105.86"/><circle class="cls-3" cx="4.75" cy="105.86" r="4.25"/><circle class="cls-3" cx="28.09" cy="105.86" r="4.25"/><circle class="cls-3" cx="51.43" cy="105.86" r="4.25"/><circle class="cls-3" cx="98.1" cy="105.86" r="4.25"/><circle class="cls-4" cx="74.77" cy="105.86" r="4.25"/><circle class="cls-3" cx="4.75" cy="134.65" r="4.25"/><circle class="cls-3" cx="28.09" cy="134.65" r="4.25"/><circle class="cls-3" cx="51.43" cy="134.65" r="4.25"/><circle class="cls-3" cx="74.77" cy="134.65" r="4.25"/><circle class="cls-4" cx="98.1" cy="134.65" r="4.25"/><path class="cls-2" d="M5.3,1h0L4,2.08,3.58,1.6,5.39.12h.53V7.45H5.3Z"/><path class="cls-2" d="M25.82,6.79l2.76-2.91a2.92,2.92,0,0,0,1-1.89A1.34,1.34,0,0,0,28.16.62a1.47,1.47,0,0,0-1.47,1.2L26,1.75A2.08,2.08,0,0,1,28.19.06,1.93,1.93,0,0,1,30.3,1.93,3.85,3.85,0,0,1,28.79,4.6L26.51,7h3.85v.56H25.82Z"/><path class="cls-2" d="M49.83,5.92A1.64,1.64,0,0,0,53,5.42c0-1.09-1-1.51-1.93-1.51h-.27V3.29h.31c.78,0,1.63-.38,1.63-1.39A1.29,1.29,0,0,0,51.4.56,1.55,1.55,0,0,0,50,1.42l-.59-.33A2.1,2.1,0,0,1,51.4,0a1.83,1.83,0,0,1,2,1.88,1.69,1.69,0,0,1-1.3,1.7v0a1.87,1.87,0,0,1,1.56,1.87,2,2,0,0,1-2.26,2.1,2.19,2.19,0,0,1-2.27-1.44Z"/><path class="cls-2" d="M75.48,5.65H72.31V4.91L75.24.12h.86v5h1.12v.56H76.1v1.8h-.62Zm0-4.84h0L72.87,5.09h2.61Z"/><path class="cls-2" d="M100.08.62h-3L97,3a2.36,2.36,0,0,1,3.34,2.21,2.42,2.42,0,0,1-4.53,1.11L96.48,6A1.78,1.78,0,0,0,98,7,1.73,1.73,0,0,0,99.69,5.2a1.86,1.86,0,0,0-1.85-1.9,2.56,2.56,0,0,0-1.44.5L96.46.06h3.62Z"/><path class="cls-5" d="M153.39,102.78v.54h-10v-.54H148V99.36h-3.59v-.54h7.83v.54h-3.65v3.42Zm-9.45-5.84h-.57V94.38h4.91c-.19-.43-.47-1-.7-1.4l.58-.17c.27.49.61,1.13.8,1.57h4.37v2.23h-.58V94.93h-8.81Zm-.45,1.12a10.53,10.53,0,0,0,3.5-2.29l.41.35a12.69,12.69,0,0,1-3.56,2.42Zm6.12-2.21A33.53,33.53,0,0,1,153.23,98l-.35.45a31.06,31.06,0,0,0-3.61-2.25Z"/><path class="cls-5" d="M158.91,97.84a10.28,10.28,0,0,1-3.41,5.84,2.89,2.89,0,0,0-.48-.42,9.16,9.16,0,0,0,3.3-5.54Zm6.33-2.74v2.64h-.58V95.67h-8.6v2.07h-.58V95.1Zm-5.48-2.23a12.68,12.68,0,0,1,1.3,1.9l-.52.25a14.88,14.88,0,0,0-1.27-2Zm6.07,10.33a2.79,2.79,0,0,0-.44.47,12.66,12.66,0,0,1-3.48-5.76l.54-.17A11,11,0,0,0,165.83,103.2Z"/><path class="cls-5" d="M170.53,99.59c-.19-.36-.71-1.18-1.08-1.73v5.89h-.54V98a14.17,14.17,0,0,1-1.72,3.49,2.74,2.74,0,0,0-.35-.49,13.4,13.4,0,0,0,2-4.12H167v-.56h1.89V94.06c-.54.13-1.08.24-1.59.31a2.47,2.47,0,0,0-.2-.46,14.61,14.61,0,0,0,3.33-.92l.41.44a9.18,9.18,0,0,1-1.41.5v2.38H171v.56h-1.53v.33c.3.36,1.23,1.61,1.45,1.92Zm7.18-1.13c-1.07,3.14-3.86,4.67-6.76,5.33a1.41,1.41,0,0,0-.32-.52,10,10,0,0,0,4-1.6,9,9,0,0,0-1.52-1.29l.43-.3a8.48,8.48,0,0,1,1.54,1.27A6.33,6.33,0,0,0,177,98.82h-2.69a10,10,0,0,1-2.75,2,1.6,1.6,0,0,0-.38-.4,8.43,8.43,0,0,0,3.73-3.19l.61.09a10.26,10.26,0,0,1-.73,1h2.48l.11,0Zm-4.33-3.9a9.88,9.88,0,0,1-2,1.43,1.77,1.77,0,0,0-.42-.4,7.49,7.49,0,0,0,3.11-2.73l.61.11a9.07,9.07,0,0,1-.82,1.08h2.63l.08,0,.37.22c-1,2.16-3.39,3.42-5.7,4a2.06,2.06,0,0,0-.31-.46,10.75,10.75,0,0,0,2.89-1.12,12.89,12.89,0,0,0-1.31-1l.42-.29a8,8,0,0,1,1.37,1,6.28,6.28,0,0,0,1.86-1.84Z"/><path class="cls-5" d="M183.86,102.12c-.07-.27-.17-.58-.29-.93-3.51.72-3.9.83-4.14,1v0a3.14,3.14,0,0,0-.2-.56c.17,0,.35-.41.53-.86a22.61,22.61,0,0,0,1.06-3.42h-1.76v-.54h5.24v.54h-2.88a25.3,25.3,0,0,1-1.35,4l3.33-.66c-.23-.68-.53-1.42-.79-2.06l.49-.13a32.87,32.87,0,0,1,1.27,3.42Zm.21-7.7H179.5v-.54h4.57Zm5.53,1.64c-.18,5-.33,6.63-.75,7.14a1,1,0,0,1-.79.37c-.36,0-1,0-1.7,0a1.19,1.19,0,0,0-.18-.56c.75.06,1.44.06,1.68.06s.38,0,.48-.17c.35-.37.53-2,.7-6.57H186.9c-.16,2.94-.68,5.78-2.48,7.43a1.27,1.27,0,0,0-.47-.38c1.73-1.52,2.25-4.26,2.4-7h-1.89v-.57h1.92c0-.88.05-1.77.05-2.63H187c0,.86,0,1.75-.06,2.63h2.67Z"/><path class="cls-5" d="M195.31,95.59c-.05.72-.1,1.45-.21,2.19h5.11s0,.22,0,.31c-.25,3.46-.49,4.74-.94,5.2a1.24,1.24,0,0,1-.89.32,15.13,15.13,0,0,1-2-.08,1.25,1.25,0,0,0-.21-.55c.89.09,1.72.1,2,.1a.86.86,0,0,0,.55-.13c.37-.34.6-1.55.83-4.61H195a6.85,6.85,0,0,1-3.59,5.41,1.63,1.63,0,0,0-.43-.44c3.19-1.53,3.55-4.86,3.69-7.72h-3.39V95h10.16v.56Zm1.33-.69a15.07,15.07,0,0,0-.84-1.85l.54-.2a13.72,13.72,0,0,1,.86,1.8Z"/><path class="cls-5" d="M213.12,102.81c0,.48-.12.71-.49.81a12.31,12.31,0,0,1-2.22.11,2.33,2.33,0,0,0-.21-.63c1,0,1.8,0,2.05,0s.3-.07.3-.3V95.52H204.2v8.21h-.58V95h3.29a17.1,17.1,0,0,0,.85-2.15l.69.15c-.29.64-.62,1.4-.92,2h5.59Zm-6.58-1.57v.87H206V97.37h4.68v3.87Zm0-3.34v2.8h3.6V97.9Z"/><circle class="cls-4" cx="150.25" cy="116.96" r="4.25"/><line class="cls-6" x1="160.25" y1="116.96" x2="205.95" y2="116.96"/><polygon class="cls-2" points="213.01 116.96 203.06 121.02 205.42 116.96 203.06 112.89 213.01 116.96"/><path class="cls-5" d="M140.5,28.14a20.52,20.52,0,0,1-1.19,2.65v8.06h-.58V31.78a14.06,14.06,0,0,1-1.24,1.68,5,5,0,0,0-.36-.53A14.14,14.14,0,0,0,140,28Zm3.95-.07c-.08.18-.18.36-.27.55a11.3,11.3,0,0,0,3.91,3.76,6.1,6.1,0,0,0-.41.46,12.83,12.83,0,0,1-3.79-3.71A11.58,11.58,0,0,1,140.06,33a1.88,1.88,0,0,0-.38-.42A10.38,10.38,0,0,0,143.84,28Zm-2.53,4.48h.58v1.63A5.46,5.46,0,0,1,140.35,39a1.82,1.82,0,0,0-.42-.41,4.85,4.85,0,0,0,2-4.36Zm3.46,0H146v6.3h-.57Z"/><path class="cls-5" d="M158.52,38c.68,0,.8-.44.89-2.07a2,2,0,0,0,.58.27c-.13,1.77-.32,2.37-1.49,2.37h-2.86c-1.16,0-1.5-.29-1.5-1.43V35.54h-3.36v.76h-.6V29.74h4V28h.59v1.77h4.1v5.8h-4.1V37.2c0,.66.15.83.9.83Zm-7.74-7.73v2h3.36v-2ZM154.14,35V32.89h-3.36V35Zm.59-4.68v2h3.52v-2ZM158.25,35V32.89h-3.52V35Z"/><path class="cls-5" d="M171.92,34h-5v4c0,.49-.14.67-.53.78a12.62,12.62,0,0,1-2.29.11,2.8,2.8,0,0,0-.26-.6c1,0,1.92,0,2.18,0s.31-.07.31-.3V34h-5.07V33.4h5.07V31.61a16.12,16.12,0,0,0,3.42-2.17h-7.28v-.56h7.89l.15,0,.42.31a17.57,17.57,0,0,1-4,2.77V33.4h5Z"/><path class="cls-5" d="M176.74,34.72c-.2-.36-.71-1.18-1.08-1.73v5.89h-.54V33.12a14.17,14.17,0,0,1-1.72,3.49,2.74,2.74,0,0,0-.35-.49A13.35,13.35,0,0,0,175,32h-1.8v-.55h1.89V29.19c-.54.13-1.08.24-1.59.31a2.47,2.47,0,0,0-.2-.46,14.61,14.61,0,0,0,3.33-.92l.41.44a8.25,8.25,0,0,1-1.41.49v2.39h1.53V32h-1.53v.34c.3.36,1.23,1.61,1.45,1.92Zm7.18-1.13c-1.07,3.14-3.86,4.66-6.76,5.32a1.62,1.62,0,0,0-.32-.51,10.17,10.17,0,0,0,4-1.6,9,9,0,0,0-1.52-1.29l.43-.3a8.08,8.08,0,0,1,1.54,1.27,6.3,6.3,0,0,0,1.9-2.53h-2.68a10,10,0,0,1-2.75,1.95,1.6,1.6,0,0,0-.38-.4,8.38,8.38,0,0,0,3.73-3.2l.61.1a10.26,10.26,0,0,1-.73,1h2.48l.11,0Zm-4.33-3.9a9.88,9.88,0,0,1-2,1.43,1.59,1.59,0,0,0-.42-.4A7.49,7.49,0,0,0,180.3,28l.61.1a9.13,9.13,0,0,1-.82,1.09h2.63l.08,0,.36.22c-1,2.16-3.38,3.41-5.69,4a2.26,2.26,0,0,0-.31-.45,10.75,10.75,0,0,0,2.89-1.12,12.93,12.93,0,0,0-1.31-1l.42-.28a8,8,0,0,1,1.37,1,6.4,6.4,0,0,0,1.86-1.84Z"/><path class="cls-5" d="M190.07,37.25c-.07-.27-.17-.58-.29-.93-3.51.72-3.9.83-4.14,1h0a3.14,3.14,0,0,0-.2-.56c.17,0,.35-.41.53-.87A22,22,0,0,0,187,32.44h-1.76V31.9h5.24v.54h-2.88a26.33,26.33,0,0,1-1.35,4.05l3.33-.66c-.23-.68-.53-1.43-.79-2.06l.49-.13a33.64,33.64,0,0,1,1.27,3.41Zm.21-7.7h-4.57V29h4.57Zm5.53,1.64c-.18,5-.33,6.63-.75,7.14a1,1,0,0,1-.79.37c-.36,0-1,0-1.7-.05a1.16,1.16,0,0,0-.18-.56c.75.06,1.44.06,1.68.06s.38,0,.48-.17c.35-.37.53-2,.7-6.57h-2.14c-.16,2.93-.68,5.78-2.48,7.43a1.27,1.27,0,0,0-.47-.38c1.73-1.53,2.25-4.26,2.4-7h-1.89v-.57h1.92c0-.89,0-1.77,0-2.64h.57c0,.87,0,1.75-.06,2.64h2.67Z"/><path class="cls-5" d="M201.52,30.72c-.05.72-.1,1.45-.21,2.18h5.11s0,.23,0,.32c-.25,3.46-.49,4.73-.94,5.2a1.19,1.19,0,0,1-.89.31,14.77,14.77,0,0,1-2-.07,1.21,1.21,0,0,0-.21-.55c.89.08,1.72.1,2,.1a.8.8,0,0,0,.55-.14c.37-.33.6-1.54.83-4.6h-4.58a6.86,6.86,0,0,1-3.59,5.41,1.67,1.67,0,0,0-.43-.45c3.19-1.52,3.55-4.85,3.69-7.71H197.5v-.56h10.16v.56Zm1.33-.69a15.07,15.07,0,0,0-.84-1.85l.54-.21a14.35,14.35,0,0,1,.86,1.8Z"/><path class="cls-5" d="M219.33,37.94c0,.48-.12.71-.49.81a12.63,12.63,0,0,1-2.22.1,2.39,2.39,0,0,0-.21-.62c1,0,1.79,0,2.05,0s.3-.07.3-.3V30.65h-8.35v8.2h-.58V30.09h3.29a17.1,17.1,0,0,0,.85-2.15l.69.14c-.29.65-.62,1.41-.92,2h5.59Zm-6.58-1.57v.86h-.54V32.5h4.68v3.87Zm0-3.35v2.81h3.6V33Z"/><circle class="cls-3" cx="207.91" cy="50.66" r="4.25"/><line class="cls-6" x1="151.36" y1="50.66" x2="197.06" y2="50.66"/><polygon class="cls-2" points="144.3 50.66 154.25 54.73 151.89 50.66 154.25 46.6 144.3 50.66"/></g></g></svg>