<svg xmlns="http://www.w3.org/2000/svg" viewBox="0 0 223.09 170.87"><defs><style>.cls-1{fill:#fff;stroke:#231815;}.cls-1,.cls-4,.cls-5,.cls-6{stroke-miterlimit:10;}.cls-2{font-size:12px;font-family:AvenirLTStd-Roman, Avenir LT Std;}.cls-2,.cls-8{fill:#231815;}.cls-3{fill:#00a0e9;}.cls-4,.cls-5,.cls-6{fill:none;}.cls-4{stroke:#00a0e9;opacity:0.4;}.cls-5{stroke:#e60012;}.cls-6{stroke:#898989;}.cls-7{fill:#898989;}</style></defs><title>semiconductor</title><g id="图层_2" data-name="图层 2"><g id="图层_1-2" data-name="图层 1"><circle class="cls-1" cx="31.72" cy="31.16" r="16.1"/><text class="cls-2" transform="translate(24.39 35.64)">+4</text><circle class="cls-3" cx="4.25" cy="31.16" r="4.25"/><circle class="cls-3" cx="59.19" cy="31.16" r="4.25"/><circle class="cls-3" cx="31.72" cy="4.25" r="4.25"/><circle class="cls-3" cx="31.72" cy="58.06" r="4.25"/><circle class="cls-1" cx="108.95" cy="31.16" r="16.1"/><text class="cls-2" transform="translate(101.62 35.64)">+4</text><circle class="cls-3" cx="81.48" cy="31.16" r="4.25"/><circle class="cls-3" cx="136.42" cy="31.16" r="4.25"/><circle class="cls-3" cx="108.95" cy="4.25" r="4.25"/><circle class="cls-3" cx="72.98" cy="67.77" r="4.25"/><circle class="cls-1" cx="31.72" cy="106.43" r="16.1"/><text class="cls-2" transform="translate(24.39 110.91)">+4</text><circle class="cls-3" cx="4.25" cy="106.43" r="4.25"/><circle class="cls-3" cx="59.19" cy="106.43" r="4.25"/><circle class="cls-3" cx="31.72" cy="79.52" r="4.25"/><circle class="cls-3" cx="31.72" cy="133.33" r="4.25"/><circle class="cls-1" cx="108.95" cy="106.43" r="16.1"/><text class="cls-2" transform="translate(101.62 110.91)">+4</text><circle class="cls-3" cx="81.48" cy="106.43" r="4.25"/><circle class="cls-3" cx="136.42" cy="106.43" r="4.25"/><circle class="cls-3" cx="108.95" cy="79.52" r="4.25"/><circle class="cls-3" cx="108.95" cy="133.33" r="4.25"/><circle class="cls-1" cx="191.37" cy="31.16" r="16.1"/><text class="cls-2" transform="translate(184.04 35.64)">+4</text><circle class="cls-3" cx="163.9" cy="31.16" r="4.25"/><circle class="cls-3" cx="218.84" cy="31.16" r="4.25"/><circle class="cls-3" cx="191.37" cy="4.25" r="4.25"/><circle class="cls-3" cx="191.37" cy="58.06" r="4.25"/><circle class="cls-1" cx="191.37" cy="106.43" r="16.1"/><text class="cls-2" transform="translate(184.04 110.91)">+4</text><circle class="cls-3" cx="163.9" cy="106.43" r="4.25"/><circle class="cls-3" cx="218.84" cy="106.43" r="4.25"/><circle class="cls-3" cx="191.37" cy="79.52" r="4.25"/><circle class="cls-3" cx="191.37" cy="133.33" r="4.25"/><line class="cls-4" x1="31.72" y1="58.06" x2="31.72" y2="79.52"/><line class="cls-4" x1="59.19" y1="31.16" x2="81.48" y2="31.16"/><line class="cls-4" x1="81.48" y1="106.43" x2="59.19" y2="106.43"/><line class="cls-4" x1="137.05" y1="106.43" x2="163.9" y2="106.43"/><line class="cls-4" x1="136.42" y1="31.16" x2="163.9" y2="31.16"/><line class="cls-4" x1="191.37" y1="58.06" x2="191.37" y2="79.52"/><circle class="cls-5" cx="108.95" cy="58.06" r="4.25"/><line class="cls-6" x1="101.04" y1="60.4" x2="83.49" y2="65.35"/><polygon class="cls-7" points="80.1 66.31 84.33 63.01 83.75 65.28 85.44 66.92 80.1 66.31"/><path class="cls-8" d="M71.56,67.64h2.83v.26H71.56Z"/><path class="cls-8" d="M108.83,58.17h-1V58h1V56.81h.24V58h1.05v.21h-1.05v1.15h-.24Z"/><circle class="cls-3" cx="15.7" cy="165.38" r="4.25"/><path class="cls-8" d="M28.61,160.07a19.76,19.76,0,0,1-1.18,2.65v8.06h-.58V163.7a12.43,12.43,0,0,1-1.25,1.68,3.83,3.83,0,0,0-.36-.53,14,14,0,0,0,2.82-4.93Zm4-.07c-.08.17-.18.35-.27.55a11.36,11.36,0,0,0,3.91,3.75,4.76,4.76,0,0,0-.41.47A12.75,12.75,0,0,1,32,161.05a11.69,11.69,0,0,1-3.83,3.89,1.53,1.53,0,0,0-.38-.42A10.38,10.38,0,0,0,32,159.89ZM30,164.47h.58v1.63a5.45,5.45,0,0,1-2.15,4.77,2,2,0,0,0-.42-.41,4.85,4.85,0,0,0,2-4.36Zm3.46,0h.57v6.29H33.5Z"/><path class="cls-8" d="M46.64,170c.68,0,.8-.43.88-2.06a2.58,2.58,0,0,0,.59.26c-.13,1.78-.32,2.38-1.49,2.38H43.76c-1.17,0-1.5-.29-1.5-1.43v-1.63H38.9v.75h-.6v-6.56h4V159.9h.59v1.76H47v5.81h-4.1v1.65c0,.66.15.83.9.83Zm-7.74-7.72v2h3.36v-2Zm3.36,4.67v-2.08H38.9v2.08Zm.59-4.67v2h3.52v-2Zm3.52,4.67v-2.08H42.85v2.08Z"/><path class="cls-8" d="M60,165.88H55v4c0,.49-.14.67-.53.78a11.72,11.72,0,0,1-2.29.11,2.8,2.8,0,0,0-.26-.6c1,0,1.92,0,2.18,0s.31-.07.31-.3v-4H49.33v-.56H54.4v-1.79a15.74,15.74,0,0,0,3.42-2.17H50.54v-.56h7.89l.15,0,.42.31a17.57,17.57,0,0,1-4,2.77v1.48h5Z"/><circle class="cls-5" cx="93.86" cy="165.38" r="4.25"/><path class="cls-8" d="M114,169.91v.54h-10v-.54h4.7V166.5H105V166h7.83v.54h-3.66v3.41Zm-9.45-5.84h-.56v-2.55h4.9c-.19-.43-.47-1-.69-1.4l.57-.17c.28.49.61,1.12.81,1.57h4.36v2.23h-.57v-1.68H104.5Zm-.44,1.13a10.79,10.79,0,0,0,3.5-2.29l.41.35a12.82,12.82,0,0,1-3.57,2.42Zm6.11-2.22a35.47,35.47,0,0,1,3.63,2.17l-.35.46a31.38,31.38,0,0,0-3.61-2.26Z"/><path class="cls-8" d="M119.47,165a10.26,10.26,0,0,1-3.4,5.84c-.1-.09-.34-.32-.48-.42a9.25,9.25,0,0,0,3.3-5.54Zm6.34-2.73v2.64h-.59V162.8h-8.6v2.08H116v-2.64ZM120.33,160a13,13,0,0,1,1.29,1.89l-.51.25a16.92,16.92,0,0,0-1.28-2Zm6.07,10.32a2.83,2.83,0,0,0-.45.47,12.55,12.55,0,0,1-3.48-5.76l.54-.16A11,11,0,0,0,126.4,170.33Z"/><line class="cls-4" x1="153.35" y1="165.38" x2="170.65" y2="165.38"/><path class="cls-8" d="M187.57,166.29v.57H176.76v-.57h2.89v-3.14h-2.36v-.56h2.36V160h.59v2.56H184V160h.59v2.56h2.47v.56h-2.47v3.14Zm-6.72,1.62a12.87,12.87,0,0,1-3.44,2.88l-.43-.42a11.19,11.19,0,0,0,3.29-2.68Zm-.61-1.62H184v-3.14h-3.8Zm3.53,1.4a40.75,40.75,0,0,1,3.44,2.7l-.51.37a41.83,41.83,0,0,0-3.4-2.77Z"/><path class="cls-8" d="M192.09,160.07a21.15,21.15,0,0,1-1.19,2.65v8.06h-.58V163.7a13.3,13.3,0,0,1-1.24,1.68,5,5,0,0,0-.36-.53,14.14,14.14,0,0,0,2.82-4.93ZM196,160c-.08.18-.18.36-.27.56a11.36,11.36,0,0,0,3.91,3.75,4.76,4.76,0,0,0-.41.47,12.75,12.75,0,0,1-3.79-3.72,11.69,11.69,0,0,1-3.83,3.89,1.53,1.53,0,0,0-.38-.42,10.38,10.38,0,0,0,4.16-4.63Zm-2.53,4.48h.58v1.63a5.45,5.45,0,0,1-2.15,4.77,1.82,1.82,0,0,0-.42-.41,4.85,4.85,0,0,0,2-4.36Zm3.46,0h.57v6.29H197Z"/><path class="cls-8" d="M201.8,161.94a7.73,7.73,0,0,1-.81,1.46,1.87,1.87,0,0,0-.32-.45,8.56,8.56,0,0,0,1.25-3l.5.12a10.41,10.41,0,0,1-.42,1.34h2.13v.53Zm2.3,6.63a3.08,3.08,0,0,0,.18.44,13,13,0,0,0-2.23,1.59v0a.11.11,0,0,0,0,0,1.8,1.8,0,0,0-.33-.41,1.38,1.38,0,0,0,.57-1.06v-2.69H200.8v-.53h1.48V164h-1v-.53h2.56V164h-1.06v1.91h1.4v.53h-1.4v2.95Zm7.54,1.57a1.67,1.67,0,0,0-.21.52H210c-1.71,0-3.25-.29-4.38-1.73a4.93,4.93,0,0,1-1.49,1.83,1.56,1.56,0,0,0-.4-.37,4.94,4.94,0,0,0,1.55-1.94,8.22,8.22,0,0,1-.9-2.18l.45-.19a9,9,0,0,0,.68,1.79,12,12,0,0,0,.67-3h-1.77c.44-.89,1-2.31,1.5-3.49h-1.54v-.51h2.3c-.43,1.1-1,2.5-1.48,3.5h1.24l.32.09a14.47,14.47,0,0,1-.88,4,4.71,4.71,0,0,0,4.16,1.73Zm-2.85-7h-2v-.49h2v-1.16h-1.51V161h1.51v-1h.5v1H211v1.66h.65v.49H211v1.62h-1.68v1.1H211v.51h-1.75v1.17h2V168h-2v1.65h-.5V168h-2v-.51h2v-1.17h-1.67v-.51h1.67v-1.1h-1.51v-.49h1.51Zm.5-.49h1.19v-1.16h-1.19Zm1.19.49h-1.19v1.13h1.19Z"/></g></g></svg>