<svg xmlns="http://www.w3.org/2000/svg" viewBox="0 0 76.12 67.91"><defs><style>.cls-1{fill:none;stroke:#231815;stroke-miterlimit:10;}.cls-2{fill:#231815;}.cls-3{fill:#9fa0a0;}</style></defs><title>capacitor_phasor</title><g id="图层_2" data-name="图层 2"><g id="coordinate_system"><line class="cls-1" x1="13.5" y1="6.39" x2="59.8" y2="6.39"/><polygon class="cls-2" points="58.41 8.42 66 6.39 58.41 4.36 58.41 8.42"/><line class="cls-1" x1="13.5" y1="6.39" x2="13.5" y2="59.81"/><polygon class="cls-2" points="11.47 58.43 13.5 66.02 15.54 58.43 11.47 58.43"/><polygon class="cls-3" points="37.41 42.79 36.41 42.79 36.41 36.76 25.96 36.76 25.96 35.76 36.41 35.76 36.41 29.61 37.41 29.61 37.41 42.79"/><polygon class="cls-3" points="43.1 42.79 42.1 42.79 42.1 29.61 43.1 29.61 43.1 35.76 53.54 35.76 53.54 36.76 43.1 36.76 43.1 42.79"/><path d="M3.33,67.91,0,59.32H1.23l2.23,6.24c.18.5.33,1,.45,1.4.14-.47.29-.93.47-1.4L6.7,59.32H7.86L4.49,67.91Z"/><path d="M.93,57.05v-1.2a2.08,2.08,0,0,1,1.63-.7,2.85,2.85,0,0,1,.74.1,9.48,9.48,0,0,1,1.1.4,4.75,4.75,0,0,0,.61.23,1.83,1.83,0,0,0,.4,0,1.62,1.62,0,0,0,.79-.23,3.06,3.06,0,0,0,.73-.57v1.24a2.81,2.81,0,0,1-.76.51A2.41,2.41,0,0,1,5.3,57,2.93,2.93,0,0,1,4.63,57a8,8,0,0,1-1-.4,3.09,3.09,0,0,0-1.16-.31,1.75,1.75,0,0,0-.71.16A3.62,3.62,0,0,0,.93,57.05Z"/><path d="M70.12,1.92V.72A2.08,2.08,0,0,1,71.75,0a2.8,2.8,0,0,1,.74.1,7.76,7.76,0,0,1,1.1.41,6.27,6.27,0,0,0,.61.22,1.4,1.4,0,0,0,.41.05,1.51,1.51,0,0,0,.78-.23A2.71,2.71,0,0,0,76.12,0V1.24a2.41,2.41,0,0,1-.76.51,2.21,2.21,0,0,1-.87.16,3,3,0,0,1-.67-.08,9.27,9.27,0,0,1-1-.39,2.91,2.91,0,0,0-1.16-.31,1.53,1.53,0,0,0-.7.16A3.53,3.53,0,0,0,70.12,1.92Z"/><path d="M72.55,12.78V4.19h1.14v8.59Z"/></g></g></svg>