<svg xmlns="http://www.w3.org/2000/svg" viewBox="0 0 76.12 64.65"><defs><style>.cls-1,.cls-3{fill:none;}.cls-1{stroke:#231815;stroke-miterlimit:10;}.cls-2{fill:#231815;}.cls-3{stroke:#9fa0a0;}</style></defs><title>inductor_phasor</title><g id="图层_2" data-name="图层 2"><g id="coordinate_system"><line class="cls-1" x1="13.5" y1="59.63" x2="59.8" y2="59.63"/><polygon class="cls-2" points="58.41 61.66 66 59.63 58.41 57.59 58.41 61.66"/><line class="cls-1" x1="13.5" y1="59.63" x2="13.5" y2="6.2"/><polygon class="cls-2" points="15.54 7.59 13.5 0 11.47 7.59 15.54 7.59"/><path id="path4176" class="cls-3" d="M23.31,33.76h6.9s-3.56-7.83,1.74-8c4.91-.11,4.35,8,2.8,8s-1.49-7.95,2.55-7.95,4.66,8,2.42,8-1.37-7.95,2.61-7.95,4.79,8,2.3,8-1.12-7.95,2.8-7.95,3.42,8,2.11,8,6.65-.06,6.65-.06"/><path d="M3.33,13.74,0,5.15H1.23l2.23,6.24q.27.75.45,1.41c.14-.47.29-.94.47-1.41L6.7,5.15H7.86L4.49,13.74Z"/><path d="M.93,2.88V1.68A2.08,2.08,0,0,1,2.56,1a2.85,2.85,0,0,1,.74.1,10,10,0,0,1,1.1.41A4.37,4.37,0,0,0,5,1.71a1.37,1.37,0,0,0,.4.05,1.6,1.6,0,0,0,.79-.22A3.39,3.39,0,0,0,6.93,1V2.2a2.41,2.41,0,0,1-.76.51,2.21,2.21,0,0,1-.87.16,2.93,2.93,0,0,1-.67-.08,9.27,9.27,0,0,1-1-.39,2.91,2.91,0,0,0-1.16-.31,1.6,1.6,0,0,0-.71.16A3.51,3.51,0,0,0,.93,2.88Z"/><path d="M70.12,53.8V52.59a2.11,2.11,0,0,1,1.63-.7,2.8,2.8,0,0,1,.74.1,9.26,9.26,0,0,1,1.1.41,4.37,4.37,0,0,0,.61.22,1.4,1.4,0,0,0,.41.06,1.62,1.62,0,0,0,.78-.23,2.75,2.75,0,0,0,.73-.58v1.25a2.81,2.81,0,0,1-.76.51,2.41,2.41,0,0,1-.87.15,2.51,2.51,0,0,1-.67-.08,6.34,6.34,0,0,1-1-.39A2.91,2.91,0,0,0,71.65,53a1.53,1.53,0,0,0-.7.16A3.63,3.63,0,0,0,70.12,53.8Z"/><path d="M72.55,64.65V56.06h1.14v8.59Z"/></g></g></svg>