<svg xmlns="http://www.w3.org/2000/svg" viewBox="0 0 94.03 74.71"><defs><style>.cls-1{fill:none;stroke:#231815;stroke-miterlimit:10;}.cls-2{fill:#231815;}</style></defs><title>kcl</title><g id="图层_2" data-name="图层 2"><g id="coordinate_system"><line class="cls-1" x1="4.33" y1="15.35" x2="47.25" y2="39.91"/><path class="cls-2" d="M46.5,41.22A1.51,1.51,0,1,0,48,38.61a1.51,1.51,0,0,0-1.5,2.61Z"/><line class="cls-1" x1="8.24" y1="10.69" x2="22.3" y2="19.25"/><polygon class="cls-2" points="20.7 19.98 26.09 21.56 22.21 17.5 20.7 19.98"/><line class="cls-1" x1="47.25" y1="39.91" x2="91.7" y2="15.16"/><line class="cls-1" x1="72.39" y1="15.98" x2="83.08" y2="10.03"/><polygon class="cls-2" points="82.92 11.78 86.95 7.87 81.51 9.24 82.92 11.78"/><line class="cls-1" x1="24.75" y1="60.09" x2="15.27" y2="70.85"/><polygon class="cls-2" points="14.84 69.15 12.34 74.18 17.01 71.07 14.84 69.15"/><line class="cls-1" x1="47.25" y1="39.91" x2="21.01" y2="74.41"/><line class="cls-1" x1="47.25" y1="39.91" x2="85.06" y2="71.04"/><line class="cls-1" x1="78.33" y1="56.51" x2="87.83" y2="64.32"/><polygon class="cls-2" points="86.14 64.81 91.25 67.14 87.98 62.57 86.14 64.81"/><path d="M19.8,9.44v.76H15.54a1.71,1.71,0,0,1,.09-.55,3.09,3.09,0,0,1,.53-.86,7.73,7.73,0,0,1,1-1,9,9,0,0,0,1.42-1.36,1.64,1.64,0,0,0,.37-1,1,1,0,0,0-.34-.79,1.21,1.21,0,0,0-.87-.32,1.23,1.23,0,0,0-.92.34,1.32,1.32,0,0,0-.35.95l-.81-.08a2,2,0,0,1,.63-1.39,2.12,2.12,0,0,1,1.46-.48,2,2,0,0,1,1.47.52,1.67,1.67,0,0,1,.54,1.27,1.85,1.85,0,0,1-.16.76,3,3,0,0,1-.52.79A14.13,14.13,0,0,1,17.89,8.2c-.48.4-.78.67-.92.81a3.09,3.09,0,0,0-.33.43Z"/><path d="M22.27,10.2l2.47-6.44h.92l2.63,6.44h-1l-.75-1.95H23.88l-.71,1.95Zm1.85-2.64h2.19l-.67-1.79c-.21-.54-.36-1-.46-1.33a8.11,8.11,0,0,1-.35,1.23Z"/><path d="M72.38,6.44V4.9H69.59V4.17L72.53,0h.64V4.17H74V4.9h-.87V6.44Zm0-2.27V1.27l-2,2.9Z"/><path d="M76.47,6.44,78.94,0h.92L82.5,6.44h-1l-.75-1.95h-2.7l-.71,2ZM78.33,3.8h2.18L79.84,2c-.21-.54-.36-1-.46-1.33A8.06,8.06,0,0,1,79,1.91Z"/><path d="M4.14,62.86l-.79.06a1.49,1.49,0,0,0-.3-.68,1,1,0,0,0-.79-.34,1.08,1.08,0,0,0-.66.21,1.83,1.83,0,0,0-.59.8A4.1,4.1,0,0,0,.79,64.4a1.81,1.81,0,0,1,.7-.65,1.85,1.85,0,0,1,.86-.21,1.82,1.82,0,0,1,1.35.58,2.1,2.1,0,0,1,.55,1.51A2.44,2.44,0,0,1,4,66.76a1.84,1.84,0,0,1-.72.79,1.9,1.9,0,0,1-1,.28A2,2,0,0,1,.62,67.1,3.68,3.68,0,0,1,0,64.71,4.31,4.31,0,0,1,.69,62a2,2,0,0,1,1.62-.74,1.81,1.81,0,0,1,1.25.43A1.8,1.8,0,0,1,4.14,62.86ZM.91,65.63a1.93,1.93,0,0,0,.17.79,1.28,1.28,0,0,0,.49.56,1.15,1.15,0,0,0,.65.2,1.1,1.1,0,0,0,.86-.4,1.56,1.56,0,0,0,.37-1.1,1.45,1.45,0,0,0-.36-1.05,1.17,1.17,0,0,0-.9-.39,1.23,1.23,0,0,0-.91.39A1.36,1.36,0,0,0,.91,65.63Z"/><path d="M6.66,67.72l2.47-6.44h.92l2.64,6.44h-1l-.76-2H8.27l-.71,2Zm1.86-2.64H10.7L10,63.29c-.21-.54-.36-1-.46-1.33a8.11,8.11,0,0,1-.35,1.23Z"/><path d="M93.24,54.88V54H94v.91Zm0,5.53V55.75H94v4.66Z"/></g></g></svg>