<svg xmlns="http://www.w3.org/2000/svg" viewBox="0 0 293.46 87.75"><defs><style>.cls-1{fill:none;}.cls-1,.cls-3{stroke:#040000;stroke-miterlimit:10;}.cls-2{fill:#040000;}.cls-3{fill:#fff;}.cls-4{fill:#231815;}</style></defs><title>max_power</title><g id="图层_2" data-name="图层 2"><g id="图层_1-2" data-name="图层 1"><g id="图层_1-2-2" data-name="图层 1-2"><circle class="cls-1" cx="172.19" cy="62.48" r="9.86"/><polyline class="cls-1" points="172.19 45.42 172.19 52.62 172.19 72.34 172.19 87.25"/><rect class="cls-1" x="169.04" y="13.2" width="6.28" height="19.83"/><line class="cls-1" x1="172.19" y1="33.03" x2="172.19" y2="45.42"/><line class="cls-1" x1="172.19" y1="0.5" x2="172.19" y2="13.2"/><rect class="cls-1" x="269.48" y="32.96" width="6.28" height="19.83"/><line class="cls-1" x1="272.62" y1="52.79" x2="272.62" y2="87.25"/><line class="cls-1" x1="272.62" y1="0.5" x2="272.62" y2="32.96"/><line class="cls-1" x1="172.19" y1="0.5" x2="272.62" y2="0.5"/><line class="cls-1" x1="172.19" y1="87.25" x2="272.62" y2="87.25"/><path class="cls-2" d="M182.05,26.71V18.12h3.81a5.12,5.12,0,0,1,1.74.23,1.92,1.92,0,0,1,1,.82,2.44,2.44,0,0,1,.36,1.29,2.11,2.11,0,0,1-.6,1.54,3,3,0,0,1-1.82.8,2.53,2.53,0,0,1,.68.43,6.12,6.12,0,0,1,.95,1.14l1.49,2.34h-1.43l-1.14-1.79c-.33-.51-.6-.91-.82-1.18a2.61,2.61,0,0,0-.57-.58,2,2,0,0,0-.52-.23,3.42,3.42,0,0,0-.64,0h-1.31v3.82Zm1.14-4.8h2.44a3.6,3.6,0,0,0,1.22-.16,1.38,1.38,0,0,0,.67-.52,1.41,1.41,0,0,0,.22-.77,1.28,1.28,0,0,0-.44-1,2.11,2.11,0,0,0-1.4-.39h-2.71Z"/><path class="cls-2" d="M192.72,29.54l.63.07a1.54,1.54,0,0,1-.56.87,1.63,1.63,0,0,1-1,.31,1.72,1.72,0,0,1-1.27-.49,1.93,1.93,0,0,1-.46-1.38,2,2,0,0,1,.47-1.42,1.69,1.69,0,0,1,2.41,0,2,2,0,0,1,.46,1.39v.17h-2.71A1.38,1.38,0,0,0,191,30a1,1,0,0,0,.76.32.93.93,0,0,0,.58-.18A1.24,1.24,0,0,0,192.72,29.54Zm-2-1h2a1.12,1.12,0,0,0-.23-.68.93.93,0,0,0-.76-.36,1,1,0,0,0-.71.28,1.12,1.12,0,0,0-.32.76Z"/><path class="cls-2" d="M196.44,32.09V30.32a1.16,1.16,0,0,1-.4.33,1.18,1.18,0,0,1-.55.14,1.47,1.47,0,0,1-1.12-.52,2,2,0,0,1-.46-1.41,2.31,2.31,0,0,1,.19-1,1.42,1.42,0,0,1,.55-.66,1.48,1.48,0,0,1,.79-.23,1.23,1.23,0,0,1,1.06.57v-.48h.55v5Zm-1.9-3.21a1.65,1.65,0,0,0,.29,1.05.9.9,0,0,0,.71.35.84.84,0,0,0,.67-.33,1.55,1.55,0,0,0,.29-1,1.69,1.69,0,0,0-.3-1.09.87.87,0,0,0-.7-.36.83.83,0,0,0-.68.34,1.61,1.61,0,0,0-.28,1Z"/><path class="cls-2" d="M192.19,66.78l-3.33-8.59h1.23l2.23,6.24c.18.5.33,1,.45,1.4.14-.47.29-.94.47-1.4l2.32-6.24h1.16l-3.37,8.59Z"/><path class="cls-2" d="M197,69a1.9,1.9,0,0,1,.56-1.5,1.72,1.72,0,0,1,1.15-.4,1.67,1.67,0,0,1,1.22.49A1.88,1.88,0,0,1,200.4,69a2.33,2.33,0,0,1-.21,1.1,1.52,1.52,0,0,1-.61.62,1.79,1.79,0,0,1-.87.22,1.66,1.66,0,0,1-1.24-.49A1.94,1.94,0,0,1,197,69Zm.64,0a1.56,1.56,0,0,0,.3,1,1,1,0,0,0,1.41.12l.12-.12a1.61,1.61,0,0,0,.3-1.06,1.49,1.49,0,0,0-.31-1,1,1,0,0,0-.75-.35,1,1,0,0,0-.77.35,1.54,1.54,0,0,0-.26,1.06Z"/><path class="cls-2" d="M203.53,69.44l.61.08a1.62,1.62,0,0,1-.51,1,1.46,1.46,0,0,1-1,.35,1.58,1.58,0,0,1-1.2-.48A2,2,0,0,1,201,69a2.65,2.65,0,0,1,.19-1,1.4,1.4,0,0,1,.59-.66,1.9,1.9,0,0,1,.87-.22,1.56,1.56,0,0,1,1,.3,1.36,1.36,0,0,1,.48.85l-.6.09a1,1,0,0,0-.3-.55.85.85,0,0,0-.53-.18A.94.94,0,0,0,202,68a1.55,1.55,0,0,0-.29,1,1.62,1.62,0,0,0,.28,1.07.9.9,0,0,0,.73.33.89.89,0,0,0,.6-.22A1.12,1.12,0,0,0,203.53,69.44Z"/><path class="cls-2" d="M282.07,49.46V40.87h3.81a5.12,5.12,0,0,1,1.74.23,1.92,1.92,0,0,1,1,.82,2.44,2.44,0,0,1,.36,1.29,2.11,2.11,0,0,1-.6,1.54,3,3,0,0,1-1.82.8,3.25,3.25,0,0,1,.68.43,5.71,5.71,0,0,1,.94,1.14l1.5,2.34h-1.43l-1.14-1.79c-.33-.51-.6-.91-.82-1.18a2.46,2.46,0,0,0-.58-.58,1.64,1.64,0,0,0-.51-.22,3.42,3.42,0,0,0-.64,0h-1.31v3.82Zm1.14-4.8h2.44a3.6,3.6,0,0,0,1.22-.16,1.38,1.38,0,0,0,.67-.52,1.41,1.41,0,0,0,.22-.77,1.28,1.28,0,0,0-.44-1,2.11,2.11,0,0,0-1.4-.39h-2.71Z"/><path class="cls-2" d="M290.3,53.46v-5h.7v4.41h2.46v.6Z"/><rect class="cls-1" x="111.6" y="33.95" width="6.28" height="19.83"/><line class="cls-1" x1="114.75" y1="53.79" x2="114.75" y2="74.25"/><line class="cls-1" x1="114.75" y1="16.5" x2="114.75" y2="33.96"/><rect class="cls-3" x="0.5" y="1.88" width="60" height="84" rx="6.56"/><line class="cls-1" x1="60.5" y1="16.5" x2="114.75" y2="16.5"/><line class="cls-1" x1="60.5" y1="74.25" x2="114.75" y2="74.25"/><path class="cls-2" d="M124.64,49.79V41.21h3.81a5,5,0,0,1,1.75.23,1.83,1.83,0,0,1,1,.81,2.47,2.47,0,0,1,.36,1.3,2.2,2.2,0,0,1-.59,1.54,3,3,0,0,1-1.83.8,3,3,0,0,1,.69.42,6.13,6.13,0,0,1,.94,1.15l1.49,2.33h-1.42L129.65,48c-.33-.52-.61-.91-.82-1.19a2.61,2.61,0,0,0-.58-.57,1.62,1.62,0,0,0-.52-.23,3.31,3.31,0,0,0-.63,0h-1.32v3.81ZM125.78,45h2.44a3.6,3.6,0,0,0,1.22-.17,1.22,1.22,0,0,0,.67-.51,1.42,1.42,0,0,0,.23-.77,1.28,1.28,0,0,0-.44-1,2.06,2.06,0,0,0-1.4-.4h-2.72Z"/><path class="cls-2" d="M132.88,53.79v-5h.66V53.2H136v.59Z"/></g><path class="cls-4" d="M23.32,31.48l-.29.43a11.86,11.86,0,0,0,5.2,3.28,4.93,4.93,0,0,0-.42.51,12.49,12.49,0,0,1-5.09-3.4,12,12,0,0,1-5.07,3.49,1.91,1.91,0,0,0-.38-.49,10.82,10.82,0,0,0,5.53-4.06Zm2.81,4.58c-.57.62-1.31,1.41-2,2.13h2.33v3.92h-.59v-.63H19.57v.64H19V38.19h4.34c.59-.58,1.25-1.26,1.73-1.79H19v-.54h6.62l.11,0Zm-.27,2.65H19.57V41h6.29Zm-3.94-4.89a11.43,11.43,0,0,1,2,1.28l-.39.39a11.26,11.26,0,0,0-2-1.33Z"/><path class="cls-4" d="M31.31,36.35A20.12,20.12,0,0,0,29.25,35l.35-.38c.67.36,1.58.9,2,1.23Zm.61,1.73c-.54,1.26-1.26,2.79-1.86,3.87l-.5-.33a35.34,35.34,0,0,0,1.89-3.88Zm-.06-4.85a21.4,21.4,0,0,0-2-1.41l.33-.39c.67.4,1.57,1,2,1.34Zm1.52,1.87c0,2.07-.19,4.95-1.59,6.95a1.93,1.93,0,0,0-.47-.29c1.37-2,1.5-4.68,1.5-6.66V31.83H40v.54H33.38Zm2,3.81a10,10,0,0,1-1.61,2.45c-.09-.07-.35-.22-.48-.31a8,8,0,0,0,1.55-2.28ZM37.1,38v3.47c0,.35-.07.5-.33.6a6.31,6.31,0,0,1-1.6.08,2.75,2.75,0,0,0-.18-.5c.66,0,1.2,0,1.35,0s.21-.06.21-.19V38h-2.3V34h1.94c.13-.39.29-.93.37-1.3l.61.15c-.14.39-.29.81-.44,1.15h2.78v4Zm-2.31-2.25H39V34.46H34.79Zm0,1.76H39V36.2H34.79Zm3.88,1.21c.54.75,1.18,1.73,1.5,2.3l-.52.26c-.32-.59-.94-1.61-1.47-2.37Z"/><path class="cls-4" d="M27.6,55.64c0,.46-.13.65-.45.76a8.51,8.51,0,0,1-2,.11,3.09,3.09,0,0,0-.23-.57c.83,0,1.56,0,1.76,0s.3-.07.3-.28V47H18.43v9.54h-.57V46.42H27.6Zm-5.38-1.87c-.26-.51-.62-1.16-1-1.84a10.18,10.18,0,0,1-2,3.06,3.5,3.5,0,0,0-.46-.36,8.6,8.6,0,0,0,2.06-3.26c-.55-.82-1.15-1.69-1.72-2.39l.39-.29c.5.63,1.05,1.37,1.54,2.09a21,21,0,0,0,.7-2.81l.55.07a21,21,0,0,1-.87,3.29,16.44,16.44,0,0,1,1.24,2.11Zm3.59.4A21.9,21.9,0,0,0,24.65,52a8.85,8.85,0,0,1-2,3.05,3.33,3.33,0,0,0-.47-.34,8.32,8.32,0,0,0,2.1-3.26c-.54-.86-1.14-1.74-1.7-2.47l.42-.28c.5.65,1,1.38,1.51,2.13A19.07,19.07,0,0,0,25.2,48l.53.08a20.75,20.75,0,0,1-.84,3.31,17.37,17.37,0,0,1,1.36,2.48Z"/><path class="cls-4" d="M33,51.88a2.12,2.12,0,0,0,0,.51c-3,.72-3.33.84-3.55,1a5,5,0,0,0-.19-.59c.22,0,.52-.36.88-.8a18.51,18.51,0,0,0,1.41-1.87,11.58,11.58,0,0,0-2.17.4,2.72,2.72,0,0,0-.19-.57c.19-.05.39-.35.66-.76a19.21,19.21,0,0,0,1.7-3.44l.57.25a21.58,21.58,0,0,1-2.06,3.79L32,49.58c.29-.44.55-.88.79-1.32l.53.28a26.33,26.33,0,0,1-2.77,3.91Zm-3.74,3.3c1-.23,2.5-.61,4-1l.07.53c-1.41.36-2.87.75-4,1ZM39.68,47a8.22,8.22,0,0,1-2.39,3,9.82,9.82,0,0,0,2.91,1.46,1.31,1.31,0,0,0-.27.49,10.69,10.69,0,0,1-3-1.64,12.75,12.75,0,0,1-3.27,1.7,2.07,2.07,0,0,0-.3-.5A12.47,12.47,0,0,0,36.48,50a7.4,7.4,0,0,1-1.57-1.94,10.11,10.11,0,0,1-1.24,1.46,3.06,3.06,0,0,0-.4-.42,9.73,9.73,0,0,0,2.38-3.61l.54.16a12.39,12.39,0,0,1-.54,1.17h3.58l.12,0Zm-5.24,5.1h4.94V56.4h-.56v-.56H35v.56h-.55Zm.55.53v2.65h3.83V52.66Zm.23-5.06a6.66,6.66,0,0,0,1.66,2.11,7.6,7.6,0,0,0,2-2.33H35.34Z"/></g></g></svg>