<svg xmlns="http://www.w3.org/2000/svg" viewBox="0 0 70.02 32.52"><defs><style>.cls-1,.cls-3{fill:none;}.cls-1{stroke:#231815;stroke-miterlimit:10;}.cls-2{fill:#231815;}.cls-3{stroke:#9fa0a0;stroke-miterlimit:5;}</style></defs><title>resistor_phasor</title><g id="图层_2" data-name="图层 2"><g id="coordinate_system"><line class="cls-1" y1="20.94" x2="46.3" y2="20.94"/><polygon class="cls-2" points="44.91 22.98 52.5 20.94 44.91 18.91 44.91 22.98"/><line class="cls-1" y1="18" x2="53.42" y2="18"/><polygon class="cls-2" points="52.04 20.04 59.63 18 52.04 15.97 52.04 20.04"/><path id="path4178" class="cls-3" d="M14.71,6h7.77L24,1.8l2.41,8.06L29,1.69l2.35,8.07,2.54-8,2.55,8,1.41-3.93h7"/><path d="M65.49,19.93l-3.33-8.59h1.23l2.23,6.24c.18.5.33,1,.46,1.4.13-.47.28-.93.46-1.4l2.32-6.24H70l-3.36,8.59Z"/><path d="M63.09,9.07V7.87a2.08,2.08,0,0,1,1.63-.7,2.8,2.8,0,0,1,.74.1,8.85,8.85,0,0,1,1.1.4,4.75,4.75,0,0,0,.61.23,1.84,1.84,0,0,0,.41,0,1.62,1.62,0,0,0,.78-.23,2.71,2.71,0,0,0,.73-.57V8.39a2.81,2.81,0,0,1-.76.51,2.41,2.41,0,0,1-.87.16A3,3,0,0,1,66.79,9a8,8,0,0,1-1-.4,3.09,3.09,0,0,0-1.16-.31,1.67,1.67,0,0,0-.7.16A3.63,3.63,0,0,0,63.09,9.07Z"/><path d="M56.63,21.67V20.46a2.08,2.08,0,0,1,1.63-.7,3.36,3.36,0,0,1,.74.1,10.77,10.77,0,0,1,1.1.41,4.89,4.89,0,0,0,.6.22,1.45,1.45,0,0,0,.41.06,1.65,1.65,0,0,0,.79-.23,2.87,2.87,0,0,0,.72-.58V21a2.67,2.67,0,0,1-.76.51,2.31,2.31,0,0,1-.86.15,2.41,2.41,0,0,1-.67-.08,6.74,6.74,0,0,1-1-.39,2.87,2.87,0,0,0-1.15-.31,1.57,1.57,0,0,0-.71.16A3.62,3.62,0,0,0,56.63,21.67Z"/><path d="M59.06,32.52V23.93h1.13v8.59Z"/></g></g></svg>