<svg xmlns="http://www.w3.org/2000/svg" viewBox="0 0 338.75 269.29"><defs><style>.cls-1,.cls-2,.cls-3{fill:none;}.cls-1,.cls-2{stroke:#040000;}.cls-1{stroke-miterlimit:10;}.cls-3{stroke:#e60012;}.cls-4{fill:#231815;}</style></defs><title>solvable</title><g id="图层_2" data-name="图层 2"><g id="图层_1-2" data-name="图层 1"><circle class="cls-1" cx="44.64" cy="11.88" r="11.38"/><path id="path1836" class="cls-1" d="M50.32,14.69V9.07"/><path id="path1838" class="cls-1" d="M47.51,11.88h5.62"/><path id="path1852" class="cls-1" d="M41.19,11.88H35.57"/><line class="cls-1" x1="56.03" y1="11.88" x2="64.33" y2="11.88"/><line class="cls-1" x1="12.96" y1="11.88" x2="33.26" y2="11.88"/><path class="cls-2" d="M79.48,11.88h15l2.5-5,5,10,5-10,5,10,5-10,5,10,2.5-5h28"/><line class="cls-2" x1="64.33" y1="11.88" x2="79.48" y2="11.88"/><line class="cls-2" x1="152.48" y1="11.88" x2="152.48" y2="72.16"/><line class="cls-2" x1="152.48" y1="72.16" x2="0.5" y2="72.16"/><line class="cls-2" x1="0.5" y1="72.16" x2="0.5" y2="11.88"/><line class="cls-2" x1="0.5" y1="11.88" x2="12.96" y2="11.88"/><circle class="cls-1" cx="229.69" cy="11.88" r="11.38"/><path id="path1836-2" data-name="path1836" class="cls-1" d="M235.37,14.69V9.07"/><path id="path1838-2" data-name="path1838" class="cls-1" d="M232.56,11.88h5.62"/><path id="path1852-2" data-name="path1852" class="cls-1" d="M226.24,11.88h-5.62"/><line class="cls-1" x1="241.07" y1="11.88" x2="249.38" y2="11.88"/><line class="cls-1" x1="198.01" y1="11.88" x2="218.31" y2="11.88"/><path class="cls-2" d="M264.53,11.88h15l2.5-5,5,10,5-10,5,10,5-10,5,10,2.5-5h28"/><line class="cls-2" x1="249.38" y1="11.88" x2="264.53" y2="11.88"/><line class="cls-2" x1="337.53" y1="11.88" x2="337.53" y2="72.16"/><line class="cls-2" x1="337.53" y1="72.16" x2="185.55" y2="72.16"/><line class="cls-2" x1="185.55" y1="72.16" x2="185.55" y2="11.88"/><line class="cls-2" x1="185.55" y1="11.88" x2="198.01" y2="11.88"/><line class="cls-3" x1="185.55" y1="42.02" x2="337.53" y2="42.02"/><circle class="cls-1" cx="44.64" cy="172.43" r="11.38"/><path id="path1836-3" data-name="path1836" class="cls-1" d="M50.32,175.24v-5.62"/><path id="path1838-3" data-name="path1838" class="cls-1" d="M47.51,172.43h5.62"/><path id="path1852-3" data-name="path1852" class="cls-1" d="M41.19,172.43H35.57"/><line class="cls-1" x1="56.03" y1="172.43" x2="64.33" y2="172.43"/><line class="cls-1" x1="12.96" y1="172.43" x2="33.26" y2="172.43"/><path class="cls-2" d="M79.48,172.43h15l2.5-5,5,10,5-10,5,10,5-10,5,10,2.5-5h28"/><path class="cls-3" d="M.5,202.57H58l2.5-5,5,10,5-10,5,10,5-10,5,10,2.5-5h64.5"/><line class="cls-2" x1="64.33" y1="172.43" x2="79.48" y2="172.43"/><line class="cls-2" x1="152.48" y1="172.43" x2="152.48" y2="232.71"/><line class="cls-2" x1="152.48" y1="232.71" x2="0.5" y2="232.71"/><line class="cls-2" x1="0.5" y1="232.71" x2="0.5" y2="172.43"/><line class="cls-2" x1="0.5" y1="172.43" x2="12.96" y2="172.43"/><circle class="cls-1" cx="229.69" cy="172.43" r="11.38"/><path id="path1836-4" data-name="path1836" class="cls-1" d="M235.37,175.24v-5.62"/><path id="path1838-4" data-name="path1838" class="cls-1" d="M232.56,172.43h5.62"/><path id="path1852-4" data-name="path1852" class="cls-1" d="M226.24,172.43h-5.62"/><line class="cls-1" x1="241.07" y1="172.43" x2="249.38" y2="172.43"/><line class="cls-1" x1="198.01" y1="172.43" x2="218.31" y2="172.43"/><path class="cls-2" d="M264.53,172.43h15l2.5-5,5,10,5-10,5,10,5-10,5,10,2.5-5h28"/><line class="cls-2" x1="249.38" y1="172.43" x2="264.53" y2="172.43"/><line class="cls-2" x1="337.53" y1="172.43" x2="337.53" y2="232.71"/><line class="cls-2" x1="337.53" y1="232.71" x2="185.55" y2="232.71"/><line class="cls-2" x1="185.55" y1="232.71" x2="185.55" y2="172.43"/><line class="cls-2" x1="185.55" y1="172.43" x2="198.01" y2="172.43"/><line class="cls-3" x1="185.55" y1="202.57" x2="241.07" y2="202.57"/><line class="cls-3" x1="338.75" y1="202.57" x2="284" y2="202.57"/><path class="cls-4" d="M72.29,99.3a10.8,10.8,0,0,0-2,6.38,11.45,11.45,0,0,0,2,6.41l-.73.47a11.89,11.89,0,0,1-.06-13.75Z"/><path class="cls-4" d="M79.27,107.14a21.62,21.62,0,0,0,.14,3h-.87a7.09,7.09,0,0,1-.09-1.16h0a2.62,2.62,0,0,1-2.51,1.35c-1.22,0-2.52-.61-2.52-2.12,0-2.19,2.55-2.4,4-2.4h1.08v-.44c0-1.24-.86-1.73-2-1.73a3.23,3.23,0,0,0-2.18.8l-.54-.63a4.16,4.16,0,0,1,2.72-1c1.73,0,2.85.78,2.85,2.59Zm-1.86-.59c-1.55,0-3.09.39-3.09,1.61a1.47,1.47,0,0,0,1.62,1.33A2.23,2.23,0,0,0,78.43,107v-.48Z"/><path class="cls-4" d="M80.7,112.06a10.77,10.77,0,0,0,2-6.38,11.55,11.55,0,0,0-2-6.41l.73-.46a11.93,11.93,0,0,1,.06,13.75Z"/><path class="cls-4" d="M256.62,99.49a10.77,10.77,0,0,0-2,6.38,11.55,11.55,0,0,0,2,6.41l-.73.46A11.93,11.93,0,0,1,255.83,99Z"/><path class="cls-4" d="M257.85,98.62h.92v5.81h0a3.29,3.29,0,0,1,2.86-1.44,3.76,3.76,0,0,1,0,7.52,3.29,3.29,0,0,1-2.86-1.44h0v1.26h-.92Zm3.82,11.06a2.93,2.93,0,0,0,0-5.86,2.93,2.93,0,1,0,0,5.86Z"/><path class="cls-4" d="M266.46,112.25a10.81,10.81,0,0,0,2-6.38,11.52,11.52,0,0,0-2-6.41l.73-.47a11.93,11.93,0,0,1,.06,13.75Z"/><path class="cls-4" d="M72.58,255.85a10.77,10.77,0,0,0-2,6.38,11.55,11.55,0,0,0,2,6.41l-.73.46a11.93,11.93,0,0,1-.06-13.75Z"/><path class="cls-4" d="M80,265.64a3.33,3.33,0,0,1-2.63,1.23,3.76,3.76,0,1,1,0-7.52A3.52,3.52,0,0,1,80,260.59l-.74.55a2.64,2.64,0,0,0-1.92-.95,2.93,2.93,0,0,0,0,5.85,2.49,2.49,0,0,0,1.92-1Z"/><path class="cls-4" d="M80.4,268.61a10.8,10.8,0,0,0,2-6.38,11.53,11.53,0,0,0-2-6.41l.73-.47a11.89,11.89,0,0,1,.06,13.75Z"/><path class="cls-4" d="M257.23,256a10.76,10.76,0,0,0-2,6.37,11.52,11.52,0,0,0,2,6.41l-.73.47a11.93,11.93,0,0,1-.06-13.75Z"/><path class="cls-4" d="M264.91,265.62h0a3.3,3.3,0,0,1-2.86,1.44,3.76,3.76,0,1,1,0-7.52,3.28,3.28,0,0,1,2.86,1.44h0v-5.81h.93v11.7h-.93ZM262,260.37a2.93,2.93,0,0,0,0,5.85,2.93,2.93,0,1,0,0-5.85Z"/><path class="cls-4" d="M267.07,268.79a10.77,10.77,0,0,0,2-6.38,11.52,11.52,0,0,0-2-6.4l.73-.47a11.93,11.93,0,0,1,.06,13.75Z"/></g></g></svg>