<svg xmlns="http://www.w3.org/2000/svg" viewBox="0 0 198.69 216.34"><defs><style>.cls-1,.cls-3{fill:#8cc63f;}.cls-1{opacity:0.6;}.cls-2,.cls-4{fill:none;stroke-miterlimit:10;}.cls-2{stroke:#000;}.cls-4{stroke:#999;stroke-width:4px;}.cls-5{fill:#999;}</style></defs><title>super_node</title><g id="图层_2" data-name="图层 2"><g id="图层_1-2" data-name="图层 1"><ellipse class="cls-1" cx="95.8" cy="45.19" rx="68.34" ry="29.39"/><rect class="cls-2" x="73.9" y="40.41" width="19.83" height="6.28"/><line class="cls-2" x1="73.9" y1="43.55" x2="58.86" y2="43.55"/><path d="M58.86,42.05a1.5,1.5,0,1,0,1.51,1.5A1.5,1.5,0,0,0,58.86,42.05Z"/><line class="cls-2" x1="108.78" y1="43.55" x2="93.73" y2="43.55"/><path d="M108.78,42.05a1.5,1.5,0,1,1-1.51,1.5A1.5,1.5,0,0,1,108.78,42.05Z"/><rect class="cls-2" x="133.82" y="40.41" width="19.83" height="6.28"/><line class="cls-2" x1="133.82" y1="43.55" x2="108.78" y2="43.55"/><line class="cls-2" x1="198.69" y1="43.55" x2="153.65" y2="43.55"/><line class="cls-2" x1="0.26" y1="8.76" x2="58.86" y2="43.64"/><line class="cls-2" x1="58.86" y1="43.64" x2="28.03" y2="93.8"/><line class="cls-2" x1="108.78" y1="43.55" x2="143.73" y2="93.8"/><line class="cls-2" x1="178.47" y1="0.43" x2="108.78" y2="43.55"/><line class="cls-2" x1="35.32" y1="130.91" x2="93.93" y2="165.78"/><line class="cls-2" x1="93.93" y1="165.78" x2="63.09" y2="215.94"/><line class="cls-2" x1="93.93" y1="165.8" x2="128.88" y2="216.05"/><line class="cls-2" x1="163.62" y1="122.68" x2="93.93" y2="165.8"/><line class="cls-2" x1="93.93" y1="165.8" x2="152.25" y2="165.8"/><circle class="cls-3" cx="93.96" cy="165.8" r="5.67"/><line class="cls-4" x1="99.47" y1="97.8" x2="99.47" y2="119.32"/><polygon class="cls-5" points="91.49 116.98 99.47 130.8 107.45 116.98 91.49 116.98"/></g></g></svg>